<?xml version="1.0" encoding="utf-8"?>
<!-- Generator: Adobe Illustrator 17.0.0, SVG Export Plug-In . SVG Version: 6.00 Build 0)  -->
<!DOCTYPE svg PUBLIC "-//W3C//DTD SVG 1.1//EN" "http://www.w3.org/Graphics/SVG/1.1/DTD/svg11.dtd">
<svg version="1.1" id="real" xmlns="http://www.w3.org/2000/svg" xmlns:xlink="http://www.w3.org/1999/xlink" x="0px" y="0px"
	 width="1024px" height="768px" viewBox="0 0 1024 768" enable-background="new 0 0 1024 768" xml:space="preserve">
<g id="right_tree">
	<path fill="#FFFFFF" stroke="#231F20" stroke-miterlimit="10" d="M910.634,78.845h98.164c0,0,6.046-24.009-19.495-18.39
		c3.576-9.195-14.303-32.182-31.672-10.727c-1.793-3.586-11.068-12.43-10.898,2.554c-2.554-6.13-7.662-3.576-6.811,2.384
		c-8.514-4.087-17.882,1.454-18.56,11.409C914.21,64.031,902.46,69.139,910.634,78.845z"/>
	<path fill="#5A3B00" d="M589.818,112.42c0,0,13.919,31.565,45.09,32.069c31.172,0.504,87.209-2.765,113.065,14.041
		s34.622,21.547,66.438,21.978c31.816,0.431,48.623,26.718,99.905,27.149c43.604,0.366,84.404,61.487,109.684,120.578
		c0-31.985-0.001-114.485-0.001-141.846c-14.003,2.389-32.591,4.677-48.132,3.555c-29.231-2.11-53.363-36.154-53.363-36.154
		l-19.823-2.155c0,0,12.928,22.84,5.171,21.978s-33.404-9.224-54.409-12.066c-21.005-2.843-37.898-33.182-23.849-55.16
		c-9.653-4.309-9.653-4.309-9.653-4.309s2.227,38.301-8.977,41.37s-37.847,5.478-56.883-6.311
		c-19.036-11.789-14.68-37.645-14.68-37.645h-9.527c0,0-1.2,28.937,9.527,38.601c-29.619-1.109-60.375,1.118-74.598-1.948
		c-14.222-3.065-27.582-25.449-27.582-25.449l-5.171,0.862c0,0,9.481,15.534,18.962,22.419c-18.1,3.438-34.176,5.161-49.193-20.695
		C591.973,110.696,589.818,112.42,589.818,112.42z"/>
	<path fill="#707432" d="M1049.113,128.364c0,0-94.87,38.966-163.49,23.271s-67.054-45.893-101.193-48.803
		c-34.139-2.91-32.844,9.157-88.438,9.157s-81.017,18.1-123.249,0c-42.232-18.1-57.477-89.205-14.814-129.282
		c42.663-40.077,163.682-0.732,262.443-17.669c108.672-18.637,176.862-50.92,214.339-2.155
		C1106.247,55.966,1121.106,122.331,1049.113,128.364z"/>
	<g>
		<g>
			<g>
				<path fill="#322A20" d="M754.438,153.159c0,0-2.188-0.811-6.141-2.277c-3.966-1.418-9.788-3.266-17.124-4.893
					c-7.335-1.633-16.245-2.763-26.169-2.844c-2.482,0.001-5.023-0.038-7.623,0.078c-2.598,0.053-5.252,0.202-7.953,0.353
					c-5.404,0.317-10.998,0.769-16.75,1.15c-2.871,0.211-5.723,0.333-8.527,0.488c-2.812,0.064-5.579,0.228-8.306,0.19
					c-1.363-0.002-2.713-0.004-4.051-0.006c-1.341-0.04-2.677-0.157-3.993-0.232c-2.645-0.073-5.19-0.57-7.682-0.939
					c-1.254-0.145-2.448-0.525-3.645-0.789c-1.189-0.305-2.379-0.538-3.518-0.893c-1.133-0.372-2.25-0.738-3.349-1.099
					c-0.547-0.186-1.098-0.348-1.629-0.55c-0.526-0.217-1.047-0.432-1.564-0.645c-1.033-0.427-2.048-0.847-3.045-1.259
					c-0.967-0.476-1.916-0.944-2.846-1.402c-1.883-0.872-3.568-1.938-5.217-2.872c-6.509-3.916-11.129-8.011-14.169-10.932
					c-3.03-2.951-4.452-4.811-4.452-4.811s1.513,1.788,4.649,4.601c3.145,2.784,7.887,6.675,14.437,10.347
					c1.66,0.873,3.35,1.876,5.231,2.684c0.928,0.427,1.875,0.862,2.839,1.306c0.991,0.381,2,0.768,3.027,1.163
					c0.513,0.197,1.03,0.397,1.551,0.597c0.526,0.187,1.072,0.332,1.613,0.503c1.086,0.33,2.189,0.666,3.308,1.007
					c1.123,0.325,2.296,0.528,3.465,0.805c1.178,0.235,2.35,0.589,3.581,0.707c2.445,0.317,4.936,0.768,7.522,0.802
					c1.29,0.056,2.586,0.155,3.906,0.179c1.326-0.012,2.664-0.024,4.015-0.036c2.7,0.013,5.45-0.17,8.24-0.247
					c2.791-0.168,5.621-0.296,8.489-0.507c5.732-0.379,11.343-0.804,16.776-1.072c2.718-0.126,5.388-0.246,8.011-0.264
					c2.619-0.081,5.188-0.004,7.693,0.04c10.023,0.255,19.009,1.63,26.343,3.5c7.34,1.865,13.107,3.94,17.019,5.521
					C752.286,152.251,754.438,153.159,754.438,153.159z"/>
			</g>
		</g>
	</g>
	<g>
		<g>
			<g>
				<path fill="#322A20" d="M797.747,162.409c0,0-0.983,0.104-2.75,0.292c-1.774,0.167-4.362,0.276-7.566,0.092
					c-3.193-0.242-7.012-0.812-11.074-2.148c-4.051-1.333-8.355-3.381-12.351-6.285c-2.017-1.426-3.833-3.013-5.525-4.602
					c-1.648-1.634-3.189-3.26-4.511-4.928c-2.702-3.289-4.713-6.558-6.257-9.356c-1.523-2.816-2.546-5.193-3.192-6.854
					c-0.64-1.665-0.91-2.613-0.91-2.613s1.495,3.667,4.895,8.998c3.41,5.277,8.799,12.302,16.574,17.857
					c3.853,2.799,7.928,4.863,11.79,6.314c3.871,1.452,7.543,2.233,10.656,2.699c3.122,0.408,5.689,0.532,7.461,0.537
					C796.761,162.41,797.747,162.409,797.747,162.409z"/>
			</g>
		</g>
	</g>
	<g>
		<g>
			<g>
				<path fill="#322A20" d="M969.908,222.309c0,0-0.352-0.499-1.021-1.447c-0.334-0.474-0.747-1.06-1.236-1.753
					c-0.538-0.655-1.159-1.41-1.857-2.261c-2.847-3.337-7.427-7.852-14.078-12.032c-6.578-4.276-15.148-8.149-24.986-11.441
					c-9.844-3.31-20.969-6-32.705-8.597c-11.732-2.616-22.989-4.944-33.019-8.015c-10.049-2.946-18.719-7.377-24.616-12.788
					c-2.877-2.775-5.054-5.709-6.462-8.556c-1.34-2.883-1.957-5.566-2.192-7.77c-0.24-2.213-0.03-3.939,0.118-5.087
					c0.175-1.152,0.375-1.732,0.375-1.732s-0.172,0.589-0.296,1.743c-0.098,1.149-0.233,2.869,0.089,5.043
					c0.316,2.165,1.024,4.774,2.426,7.541c1.472,2.733,3.684,5.517,6.561,8.137c5.913,5.106,14.448,9.226,24.441,11.98
					c9.973,2.874,21.22,5.085,32.974,7.705c11.757,2.602,22.931,5.421,32.81,8.926c9.873,3.486,18.458,7.621,24.988,12.143
					c6.606,4.425,11.067,9.155,13.793,12.618c0.666,0.881,1.258,1.664,1.772,2.343c0.46,0.715,0.85,1.32,1.164,1.809
					C969.579,221.796,969.908,222.309,969.908,222.309z"/>
			</g>
		</g>
	</g>
	<g>
		<g>
			<g>
				<path fill="#322A20" d="M905.913,200.331c0,0-0.874-0.018-2.443-0.051c-0.79-0.023-1.755-0.05-2.873-0.082
					c-1.12-0.048-2.386-0.203-3.793-0.328c-5.615-0.546-13.35-1.966-21.542-4.699c-8.209-2.686-15.245-6.14-20.185-8.846
					c-4.944-2.721-7.782-4.754-7.782-4.754s3.076,1.638,8.194,3.93c5.12,2.281,12.256,5.273,20.354,7.922
					c8.081,2.696,15.584,4.539,21.092,5.536c1.378,0.237,2.622,0.506,3.724,0.66c1.103,0.146,2.055,0.272,2.834,0.375
					C905.047,200.21,905.913,200.331,905.913,200.331z"/>
			</g>
		</g>
	</g>
	<g>
		<g>
			<g>
				<path fill="#322A20" d="M1071.395,234.942c0,0-0.582,0.208-1.747,0.334c-0.29,0.041-0.615,0.087-0.973,0.137
					c-0.36,0.009-0.755,0.019-1.182,0.03c-0.856,0.017-1.844,0.037-2.956,0.059c-1.108-0.079-2.34-0.167-3.689-0.263
					c-1.35-0.092-2.821-0.178-4.376-0.453c-1.562-0.232-3.232-0.48-5.002-0.744c-0.883-0.145-1.803-0.24-2.727-0.438
					c-0.924-0.196-1.872-0.396-2.844-0.602c-7.807-1.512-16.956-3.939-27.039-6.874c-5.007-1.582-10.262-3.242-15.709-4.964
					c-1.371-0.398-2.708-0.969-4.077-1.471c-1.364-0.518-2.739-1.041-4.124-1.567c-1.375-0.551-2.803-1.004-4.161-1.65
					c-1.362-0.636-2.732-1.277-4.111-1.921c-11.033-5.147-20.853-11.472-29.05-18.094c-8.224-6.609-14.77-13.545-19.827-19.675
					c-5.054-6.149-8.591-11.543-10.856-15.359c-2.266-3.821-3.267-6.067-3.267-6.067s1.105,2.196,3.512,5.916
					c2.406,3.715,6.119,8.955,11.314,14.914c5.2,5.942,11.851,12.653,20.093,19.055c8.218,6.417,17.969,12.558,28.864,17.641
					c1.361,0.638,2.714,1.272,4.058,1.903c1.339,0.641,2.749,1.092,4.105,1.643c1.366,0.528,2.722,1.052,4.067,1.571
					c1.351,0.506,2.66,1.079,4.028,1.489c5.409,1.785,10.627,3.507,15.598,5.147c9.996,3.089,19.051,5.73,26.774,7.46
					c0.962,0.234,1.9,0.462,2.815,0.684c0.915,0.225,1.823,0.347,2.697,0.519c1.753,0.32,3.406,0.622,4.952,0.904
					c1.542,0.328,2.996,0.463,4.334,0.604c1.338,0.147,2.561,0.281,3.662,0.401c1.105,0.022,2.087,0.042,2.937,0.059
					c0.426,0.007,0.82,0.013,1.18,0.019c0.357-0.035,0.681-0.067,0.97-0.095C1070.804,235.122,1071.395,234.942,1071.395,234.942z"
					/>
			</g>
		</g>
	</g>
	<g>
		<g>
			<g>
				<path fill="#322A20" d="M1044.03,309.79c0,0-0.562-1.361-1.575-3.817c-0.501-1.23-1.114-2.734-1.825-4.479
					c-0.354-0.873-0.732-1.806-1.133-2.796c-0.457-0.966-0.939-1.987-1.446-3.059c-1.005-2.146-2.105-4.496-3.285-7.016
					c-1.314-2.454-2.718-5.075-4.194-7.832c-0.698-1.4-1.575-2.744-2.412-4.149c-0.844-1.401-1.706-2.832-2.583-4.287
					c-0.835-1.482-1.873-2.871-2.837-4.337c-0.979-1.456-1.973-2.934-2.978-4.429c-8.409-11.706-17.411-21.272-24.627-27.395
					c-0.901-0.767-1.76-1.497-2.573-2.188c-0.839-0.658-1.631-1.278-2.371-1.859c-1.474-1.172-2.815-2.086-3.89-2.862
					c-2.185-1.506-3.464-2.235-3.464-2.235s1.332,0.627,3.619,1.993c1.126,0.706,2.531,1.542,4.077,2.633
					c0.777,0.543,1.607,1.122,2.487,1.737c0.853,0.654,1.754,1.344,2.699,2.069c7.561,5.807,17.032,15.185,25.544,27.039
					c1.011,1.516,2.011,3.014,2.995,4.491c0.964,1.49,1.995,2.906,2.819,4.416c0.86,1.487,1.704,2.947,2.531,4.378
					c0.815,1.437,1.666,2.813,2.332,4.246c1.395,2.826,2.721,5.512,3.963,8.028c1.076,2.586,2.079,4.995,2.995,7.197
					c0.453,1.1,0.885,2.148,1.293,3.139c0.347,1.014,0.675,1.971,0.982,2.867c0.605,1.789,1.126,3.332,1.553,4.593
					C1043.565,308.394,1044.03,309.79,1044.03,309.79z"/>
			</g>
		</g>
	</g>
	<g>
		<g>
			<g>
				<path fill="#93883E" d="M559.365,32.408c0,0-0.615-0.336-1.73-0.946c-1.1-0.641-2.737-1.532-4.556-3.022
					c-0.908-0.741-1.872-1.642-2.672-2.857c-0.796-1.189-1.41-2.819-1.172-4.577c0.091-0.421,0.189-0.853,0.308-1.28
					c0.177-0.401,0.357-0.807,0.539-1.218c0.479-0.792,1.06-1.518,1.718-2.117c0.646-0.627,1.344-1.183,2.047-1.733
					c0.349-0.269,0.701-0.54,1.056-0.814l0.132-0.101l0.013-0.012l0.004-0.008l0.002-0.01c-0.038-0.041,0.101,0.152-0.552-0.56
					c-0.45-0.541-0.932-1.264-0.988-2.226c-0.036-0.594,0.15-1.204,0.444-1.666c0.294-0.468,0.667-0.82,1.048-1.103
					c0.77-0.553,1.583-0.873,2.386-1.099c0.805-0.219,1.608-0.332,2.397-0.363c0.395-0.009,0.786-0.008,1.173,0.028
					c0.137,0.01,0.115,0.011,0.121,0.013l0.024,0.008l0.057,0.019l0.012-0.05l0.007-0.03c0.004-0.026-0.006,0.041,0.005-0.027
					l0.022-0.153c0.046-0.407,0.169-0.809,0.299-1.195c0.27-0.777,0.736-1.471,1.289-2.018c1.119-1.111,2.52-1.622,3.797-1.854
					c2.594-0.429,4.859,0.123,6.542,0.86c1.692,0.76,2.803,1.794,3.352,2.619c0.289,0.403,0.452,0.752,0.546,0.988
					c0.093,0.237,0.141,0.36,0.141,0.36s-0.064-0.116-0.187-0.337c-0.122-0.219-0.325-0.538-0.651-0.892
					c-0.623-0.727-1.785-1.578-3.439-2.132c-1.638-0.538-3.81-0.841-6.055-0.294c-1.104,0.281-2.221,0.805-2.998,1.682
					c-0.389,0.433-0.695,0.944-0.863,1.524c-0.079,0.291-0.16,0.586-0.179,0.902l-0.035,0.364l-0.004,0.528l-0.006,1.069
					c-0.327-0.051-0.657-0.102-0.989-0.154l-0.509-0.072c-0.173-0.029-0.369-0.035-0.409-0.036c-0.319-0.019-0.646-0.006-0.977,0.01
					c-0.661,0.048-1.337,0.163-1.992,0.356c-0.651,0.196-1.287,0.475-1.789,0.846c-0.504,0.382-0.774,0.814-0.741,1.208
					c0.12,0.78,0.481,1.269,2.597,2.894l-1.057,0.833l-0.523,0.411l-0.393,0.292c-0.362,0.265-0.722,0.528-1.078,0.788
					c-0.7,0.516-1.377,1.021-1.972,1.556c-0.623,0.521-1.102,1.097-1.502,1.671c-0.164,0.325-0.327,0.646-0.488,0.963
					c-0.101,0.334-0.201,0.663-0.3,0.988c-0.26,1.332,0.11,2.654,0.732,3.765c0.618,1.121,1.447,2.053,2.251,2.84
					c1.611,1.589,3.135,2.655,4.147,3.417C558.798,31.998,559.365,32.408,559.365,32.408z"/>
			</g>
		</g>
	</g>
	<g>
		<g>
			<g>
				<path fill="#93883E" d="M579.188,87.569c0,0-0.164,0.079-0.477,0.229c-0.319,0.14-0.813,0.31-1.475,0.434
					c-1.323,0.254-3.317,0.274-5.738-0.16c-2.411-0.457-5.292-1.264-8.241-2.965c-0.735-0.43-1.462-0.941-2.161-1.557
					c-0.684-0.624-1.372-1.385-1.741-2.475c-0.144-0.555-0.225-1.195-0.037-1.795c0.044-0.148,0.08-0.304,0.138-0.445l0.215-0.397
					c0.136-0.282,0.332-0.481,0.519-0.702c0.182-0.235,0.398-0.392,0.608-0.571c0.028-0.023,0.026-0.027,0.039-0.037l0.031-0.035
					c-0.006-0.005-0.058-0.002-0.07-0.001c-0.024-0.002,0.015,0.008-0.056-0.003c-0.08-0.013-0.005,0.005-0.376-0.068
					c-1.092-0.21-2.24-0.468-3.392-0.867c-1.164-0.405-2.336-0.95-3.32-1.876c-0.493-0.443-0.908-1.04-1.186-1.694
					c-0.251-0.654-0.339-1.331-0.305-2.01c0.077-1.373,0.79-2.563,1.644-3.397c0.102-0.111,0.22-0.211,0.329-0.302l0.042-0.025
					l0.094-0.048c0.071-0.034,0.161-0.07,0.27-0.104c0.138-0.038,0.034-0.02,0.004-0.029c-0.045-0.004-0.099-0.013-0.162-0.025
					l-0.217-0.053l-0.394-0.093c-0.182-0.039-0.361-0.101-0.54-0.151c-0.711-0.223-1.4-0.521-2.01-0.98
					c-0.602-0.439-1.135-1.151-1.246-1.898c-0.143-0.745,0.014-1.556,0.375-2.089c0.151-0.295,0.359-0.521,0.532-0.773
					c0.202-0.218,0.394-0.439,0.593-0.639c0.807-0.79,1.633-1.38,2.387-1.897c1.513-1.027,2.775-1.712,3.624-2.204
					c0.846-0.494,1.304-0.761,1.304-0.761s-0.413,0.332-1.212,0.903c-0.791,0.58-1.978,1.391-3.368,2.527
					c-0.69,0.569-1.445,1.215-2.129,2.002c-0.672,0.768-1.33,1.773-1.053,2.679c0.219,0.946,1.332,1.539,2.564,1.843
					c0.157,0.033,0.31,0.079,0.473,0.104c0.169,0.022,0.267,0.062,0.649,0.1c0.33,0.026,0.631,0.072,0.998,0.082
					c0.416-0.016,0.785-0.015,1.257-0.045c2.334-0.251,4.716-0.507,7.143-0.768c-2.078,0.731-4.182,1.471-6.311,2.219l-0.64,0.234
					c-0.199,0.077-0.478,0.161-0.558,0.229l-0.743,0.429c-0.264,0.141-0.435,0.301-0.62,0.465c-0.09,0.08-0.171,0.154-0.245,0.241
					c-0.624,0.654-1.053,1.475-1.074,2.319c-0.01,0.416,0.056,0.862,0.215,1.252c0.175,0.363,0.408,0.721,0.767,1.033
					c0.682,0.635,1.643,1.108,2.677,1.462c1.02,0.354,2.091,0.605,3.137,0.819c1.921,0.371,3.763,0.727,5.47,1.057
					c-0.998,0.469-1.978,0.926-2.991,1.441c-0.502,0.254-1.03,0.478-1.33,0.767c-0.155,0.125-0.331,0.239-0.437,0.383
					c-0.526,0.544-0.707,1.104-0.551,1.745c0.182,0.646,0.664,1.304,1.23,1.856c0.573,0.554,1.203,1.054,1.862,1.489
					c2.652,1.737,5.398,2.738,7.69,3.367c2.309,0.613,4.238,0.781,5.546,0.669c0.655-0.054,1.155-0.165,1.484-0.267
					C579.017,87.628,579.188,87.569,579.188,87.569z"/>
			</g>
		</g>
	</g>
	<g>
		<g>
			<g>
				<path fill="#93883E" d="M663.078,90.154c0,0,0.212,0.039,0.617,0.114c0.404,0.085,1.019,0.151,1.773,0.418
					c0.382,0.116,0.813,0.237,1.25,0.466c0.224,0.104,0.458,0.213,0.701,0.326c0.225,0.15,0.46,0.306,0.703,0.467
					c0.921,0.661,1.982,1.793,2.027,3.444c0.035,0.202-0.017,0.4-0.05,0.602c-0.041,0.2-0.062,0.413-0.125,0.611
					c-0.185,0.366-0.291,0.81-0.575,1.135c-0.127,0.175-0.256,0.351-0.386,0.53c-0.135,0.174-0.309,0.308-0.465,0.466
					c-0.163,0.149-0.32,0.315-0.496,0.454c-0.184,0.126-0.371,0.254-0.559,0.383c-1.524,1.014-3.397,1.597-5.406,1.924
					c-2.01,0.265-4.185,0.284-6.426-0.236c-1.115-0.269-2.246-0.685-3.301-1.344c-0.525-0.332-1.022-0.727-1.486-1.176
					c-0.614-0.684-0.407-0.457-0.472-0.523c-0.008,0.018-0.016,0.034-0.052,0.082l-0.01,0.014l-0.006,0.007l-0.049,0.052
					l-0.198,0.208c-0.132,0.139-0.265,0.281-0.408,0.409c-0.556,0.539-1.174,1.023-1.826,1.479c-1.306,0.909-2.77,1.675-4.333,2.261
					c-2.375,0.875-4.935,1.391-7.479,0.861c-1.25-0.293-2.504-0.916-3.342-1.932c-0.441-0.484-0.737-1.055-0.987-1.617
					c-0.073-0.176-0.065-0.2-0.101-0.307l-0.011-0.099l-0.257,0.169c-0.433,0.303-0.874,0.566-1.316,0.818
					c-0.886,0.495-1.781,0.913-2.678,1.267c-1.793,0.703-3.599,1.164-5.368,1.257c-1.743,0.094-3.569-0.255-4.801-1.38
					c-0.6-0.549-1.021-1.246-1.25-1.911c-0.316-0.749-0.166-1.531,0.022-2.125c0.406-1.225,0.999-2.165,1.478-2.999
					c0.489-0.827,0.912-1.526,1.185-2.125c0.272-0.583,0.383-1.143,0.112-1.384c-0.261-0.213-0.476-0.189-0.466-0.206
					c-0.007,0.02,0.196-0.032,0.499,0.169c0.328,0.245,0.255,0.876,0.027,1.49c-0.227,0.638-0.595,1.379-1.017,2.24
					c-0.411,0.86-0.923,1.849-1.209,2.984c-0.133,0.568-0.189,1.157,0.072,1.657c0.251,0.595,0.627,1.114,1.135,1.529
					c1.026,0.828,2.553,1.061,4.128,0.895c1.586-0.165,3.256-0.67,4.907-1.4c0.826-0.367,1.65-0.792,2.452-1.278
					c0.398-0.246,0.795-0.502,1.169-0.783c0.057-0.037,0.269-0.199,0.45-0.359c0.183-0.16,0.367-0.299,0.553-0.478
					c0.368-0.35,0.738-0.701,1.109-1.054c0.113,0.495,0.227,0.994,0.342,1.496c0.123,0.413,0.259,0.934,0.376,1.268
					c0.201,0.408,0.418,0.814,0.734,1.135c0.588,0.684,1.461,1.104,2.436,1.323c1.99,0.393,4.297-0.036,6.449-0.843
					c1.42-0.532,2.768-1.228,3.95-2.033c0.59-0.403,1.147-0.827,1.632-1.283c0.128-0.109,0.24-0.228,0.354-0.343l0.171-0.173
					l0.043-0.043l0.078-0.098l0.156-0.197c0.414-0.508,0.82-1.061,1.216-1.603c1.535,2.481,1.861,2.601,2.787,3.286
					c0.847,0.563,1.807,0.957,2.787,1.229c1.972,0.532,4.009,0.607,5.885,0.445c1.86-0.216,3.616-0.669,5.011-1.488
					c1.37-0.8,2.448-2.018,2.476-3.329c0.063-1.307-0.752-2.388-1.575-3.073c-0.217-0.17-0.426-0.334-0.627-0.492
					c-0.224-0.127-0.44-0.248-0.646-0.365c-0.404-0.256-0.813-0.408-1.177-0.553c-0.717-0.325-1.318-0.445-1.711-0.567
					C663.285,90.213,663.078,90.154,663.078,90.154z"/>
			</g>
		</g>
	</g>
	<g>
		<g>
			<g>
				<path fill="#93883E" d="M613.664,19.767c0,0-0.553-0.009-1.537-0.024c-0.99-0.019-2.421,0.002-4.215-0.195
					c-0.896-0.115-1.886-0.288-2.934-0.661c-1.032-0.376-2.174-1.031-2.971-2.171c-0.817-1.146-1.042-2.613-0.966-4.025
					c0.108-1.43,0.773-3.017,2.018-4.025c0.776-0.672,1.676-1.094,2.544-1.369c0.218-0.06,0.436-0.137,0.648-0.178l0.317-0.069
					c0.107-0.023,0.236-0.051,0.199-0.04l0.088,0.015c0.004-0.009,0.001-0.026-0.001-0.046c-0.008-0.034,0.024,0.042-0.113-0.333
					c-0.092-0.272-0.2-0.532-0.27-0.806c-0.047-0.285-0.094-0.566-0.141-0.845c-0.109-1.145,0.237-2.279,0.816-3.093
					c0.566-0.839,1.302-1.383,1.982-1.82c0.685-0.44,1.36-0.74,1.973-0.989c1.231-0.488,2.239-0.749,2.93-0.92
					c0.69-0.155,1.07-0.241,1.07-0.241s-0.356,0.156-1.003,0.438c-0.644,0.29-1.587,0.716-2.69,1.351
					c-0.547,0.32-1.142,0.691-1.704,1.162c-0.56,0.465-1.131,1.014-1.483,1.692c-0.368,0.668-0.516,1.431-0.383,2.232
					c0.049,0.2,0.099,0.403,0.149,0.607c0.068,0.203,0.173,0.405,0.256,0.61l0.065,0.154c0.029,0.061,0.014,0.062,0.127,0.255
					l0.378,0.644c0.256,0.439,0.515,0.883,0.775,1.329c-0.709,0.085-1.458,0.18-2.237,0.302c-0.24,0.031-0.302,0.053-0.389,0.075
					l-0.269,0.068c-0.183,0.041-0.349,0.11-0.527,0.162c-0.694,0.239-1.37,0.578-1.912,1.052c-0.868,0.711-1.315,1.718-1.46,2.798
					c-0.094,1.1,0.01,2.189,0.516,3.005c0.486,0.829,1.295,1.438,2.162,1.859c0.872,0.417,1.771,0.694,2.606,0.913
					c1.682,0.412,3.106,0.625,4.077,0.814C613.13,19.635,613.664,19.767,613.664,19.767z"/>
			</g>
		</g>
	</g>
	<g>
		<g>
			<g>
				<path fill="#93883E" d="M604.47,100.21c0,0-0.306,0.119-0.885,0.268c-0.578,0.154-1.432,0.323-2.502,0.414
					c-1.07,0.094-2.355,0.112-3.778-0.041c-1.421-0.152-2.988-0.463-4.565-1.138c-0.787-0.336-1.537-0.771-2.195-1.332
					c-0.652-0.557-1.222-1.284-1.473-2.134c-0.261-0.851-0.133-1.715,0.13-2.373c0.274-0.664,0.649-1.175,1.024-1.586
					c0.75-0.826,1.467-1.321,1.964-1.651c0.5-0.306,0.788-0.482,0.788-0.482s-0.218,0.255-0.597,0.697
					c-0.373,0.448-0.917,1.108-1.407,1.972c-0.488,0.849-0.878,1.99-0.436,2.908c0.411,0.93,1.582,1.715,2.936,2.292
					c2.752,1.151,5.597,1.66,7.628,1.947c1.024,0.138,1.866,0.202,2.451,0.22C604.14,100.216,604.47,100.21,604.47,100.21z"/>
			</g>
		</g>
	</g>
	<g>
		<g>
			<g>
				<path fill="#93883E" d="M664.515,20.916c0,0-0.09-0.1-0.259-0.288c-0.086-0.097-0.192-0.216-0.316-0.357
					c-0.109-0.153-0.221-0.34-0.356-0.549c-0.259-0.423-0.486-1.001-0.62-1.719c-0.092-0.72-0.046-1.586,0.298-2.47
					c0.339-0.88,0.981-1.763,1.914-2.415c0.466-0.323,0.998-0.599,1.581-0.775c0.294-0.08,0.591-0.184,0.904-0.207l0.472-0.059
					l0.119-0.014c-0.101,0.009-0.018,0.001-0.036,0.002l0.031-0.006c0.042-0.006,0.077-0.01,0.049-0.069
					c-0.007-0.012-0.007-0.062-0.02-0.035c-0.015,0.079-0.004-0.002,0.001-0.045l0.018-0.14l0.04-0.282
					c0.132-0.743,0.556-1.539,1.175-2.022c0.597-0.503,1.283-0.842,1.959-1.046c0.68-0.226,1.365-0.356,2.048-0.448
					c0.686-0.099,1.348-0.14,1.997-0.183c0.319-0.017,0.636-0.033,0.95-0.05c0.08-0.001,0.041,0.008,0.076,0.011l0.008-0.016
					c0.007-0.036-0.001,0.075,0.021-0.197c0.053-0.38,0.154-0.754,0.311-1.099c0.31-0.694,0.809-1.243,1.34-1.642
					c1.077-0.804,2.253-1.11,3.324-1.257c1.079-0.121,2.088-0.07,2.98,0.136c0.889,0.204,1.673,0.529,2.256,0.99
					c0.588,0.45,0.948,1.022,1.071,1.518c0.233,1.012-0.117,1.521-0.065,1.519c-0.044,0.015,0.166-0.576-0.206-1.422
					c-0.353-0.853-1.577-1.585-3.2-1.696c-0.805-0.077-1.704-0.008-2.619,0.195c-0.905,0.219-1.856,0.595-2.562,1.224
					c-0.351,0.31-0.627,0.678-0.778,1.084c-0.077,0.203-0.12,0.417-0.141,0.639l-0.012,0.271l0.034,0.46l0.038,0.886
					c-0.52,0.105-1.219,0.137-1.754,0.188c-0.314,0.025-0.63,0.05-0.948,0.075c-0.624,0.055-1.257,0.101-1.87,0.191
					c-1.222,0.159-2.406,0.455-3.123,1.019c-0.378,0.268-0.56,0.616-0.674,1.021l-0.032,0.157l-0.018,0.079
					c-0.006,0.03-0.014,0.02-0.015,0.178l0.008,0.845l0.004,0.402l0.002,0.199c-0.036,0.028-0.128-0.001-0.189,0.002l-0.808-0.059
					l-0.395-0.029l-0.249-0.017l-0.091,0.005l-0.361,0.016c-0.244-0.008-0.471,0.057-0.702,0.095
					c-0.458,0.092-0.886,0.262-1.276,0.473c-0.78,0.427-1.381,1.06-1.754,1.74c-0.378,0.682-0.53,1.398-0.552,2.04
					c0.019,0.639,0.129,1.203,0.299,1.64c0.09,0.218,0.17,0.412,0.24,0.581c0.093,0.158,0.172,0.291,0.236,0.4
					C664.447,20.8,664.515,20.916,664.515,20.916z"/>
			</g>
		</g>
	</g>
	<g>
		<g>
			<g>
				<path fill="#93883E" d="M777.708,21.491c0,0,0.148-0.283,0.429-0.822c0.272-0.542,0.654-1.353,1.039-2.431
					c0.372-1.074,0.761-2.449,0.746-4.036c-0.03-0.787-0.147-1.627-0.508-2.416c-0.382-0.772-0.957-1.49-1.759-2.017
					c-0.818-0.489-1.764-0.906-2.824-1.084c-1.039-0.267-2.141-0.233-3.264-0.045c-2.255,0.382-4.455,1.655-6.607,3.243
					c-1.085,0.79-2.175,1.655-3.332,2.521l-0.884,0.646l-0.225,0.161l-0.292,0.201l-0.821,0.543l-0.414,0.274l-0.104,0.069
					c-0.034,0.021-0.072,0.065-0.095,0.005l-0.158-0.212l-0.637-0.856l-0.751-1.025c-1.715-2.385-3.505-4.897-6.321-5.235
					c-1.16-0.166-2.225-0.16-3.301,0.144c-1.069,0.284-2.094,0.772-3.041,1.359c-0.948,0.589-1.822,1.278-2.615,2.014l-0.579,0.562
					l-0.275,0.289l-0.227,0.244c-0.092,0.096-0.177,0.204-0.265,0.305c-0.676,0.859-1.343,1.707-2,2.541
					c-0.063-0.59-0.127-1.178-0.19-1.762c-0.065-0.577-0.176-1.081-0.26-1.616l-0.068-0.393c-0.023-0.111-0.047-0.127-0.069-0.196
					l-0.136-0.337c-0.073-0.234-0.214-0.428-0.332-0.634c-0.499-0.807-1.24-1.43-2.089-1.853c-1.714-0.86-3.722-0.951-5.524-0.763
					c-3.65,0.438-6.712,2.029-8.657,3.9c-0.982,0.936-1.686,1.95-2.144,2.913c-0.441,0.973-0.635,1.879-0.714,2.623
					c-0.054,0.745-0.043,1.331,0.019,1.719c0.044,0.392,0.067,0.596,0.067,0.596s-0.04-0.201-0.118-0.588
					c-0.096-0.385-0.156-0.971-0.16-1.738c0.022-0.765,0.149-1.716,0.538-2.767c0.406-1.039,1.075-2.16,2.047-3.212
					c1.934-2.105,5.044-3.971,8.961-4.631c1.945-0.286,4.161-0.321,6.309,0.643c1.059,0.478,2.072,1.255,2.771,2.311
					c0.168,0.266,0.355,0.527,0.466,0.824l0.191,0.437l0.085,0.199l0.016,0.051c0.053,0.16,0.066,0.217,0.074,0.25l0.093-0.143
					l0.01-0.014c0.008-0.01-0.014,0.013,0.054-0.063l0.294-0.324l0.62-0.628c0.852-0.824,1.797-1.597,2.852-2.274
					c1.055-0.673,2.223-1.254,3.519-1.61c0.647-0.172,1.322-0.308,2.021-0.324c0.7-0.05,1.374,0.055,2.043,0.125
					c0.862,0.135,1.731,0.411,2.508,0.824c0.784,0.409,1.457,0.96,2.052,1.537c1.19,1.167,2.055,2.463,2.911,3.671l0.543,0.774
					c0.012,0.014,0.004,0.063,0.083,0.005l0.091-0.053l0.375-0.255l0.869-0.604c1.151-0.817,2.275-1.66,3.421-2.44
					c2.267-1.563,4.73-2.895,7.313-3.217c1.266-0.16,2.566-0.125,3.698,0.225c1.154,0.258,2.202,0.775,3.11,1.397
					c0.898,0.663,1.539,1.56,1.918,2.478c0.361,0.936,0.424,1.871,0.401,2.717c-0.098,1.699-0.602,3.067-1.06,4.131
					c-0.473,1.064-0.921,1.846-1.238,2.365C777.88,21.221,777.708,21.491,777.708,21.491z"/>
			</g>
		</g>
	</g>
	<g>
		<g>
			<g>
				<path fill="#93883E" d="M736.338,90.729c0,0-0.081,0.138-0.234,0.399c-0.171,0.252-0.446,0.612-0.859,1.026
					c-0.823,0.827-2.176,1.869-4.016,2.89c-1.839,1.017-4.143,2.069-6.924,2.733c-1.393,0.313-2.906,0.569-4.591,0.369
					c-0.833-0.12-1.755-0.365-2.562-1.028c-0.208-0.148-0.367-0.374-0.545-0.567c-0.125-0.156-0.106-0.162-0.165-0.25
					c-0.009-0.01-0.01-0.002-0.01-0.002l-0.002,0.011l-0.002-0.002c0.01-0.012-0.024,0.027,0.022-0.027l-0.114,0.136l-0.229,0.271
					c-0.147,0.187-0.321,0.343-0.489,0.504c-0.675,0.641-1.435,1.162-2.244,1.533c-1.603,0.763-3.374,1.028-5.002,0.744
					c-0.408-0.045-0.801-0.192-1.182-0.301c-0.362-0.154-0.727-0.293-1.057-0.473c-0.337-0.169-0.669-0.328-0.974-0.57l-0.456-0.332
					l-0.4-0.397c-1.075-1.072-1.434-2.518-1.438-3.689c0.021-2.394,0.832-4.09,1.305-5.244c0.517-1.148,0.853-1.754,0.853-1.754
					s-0.232,0.656-0.582,1.853c-0.314,1.184-0.867,2.98-0.657,5.084c0.116,1.034,0.515,2.112,1.398,2.849l0.327,0.28l0.383,0.231
					c0.241,0.17,0.544,0.285,0.843,0.409c0.295,0.136,0.605,0.227,0.911,0.338c0.315,0.062,0.619,0.165,0.949,0.178
					c1.296,0.151,2.724-0.127,3.999-0.787c0.645-0.318,1.24-0.754,1.76-1.263c0.13-0.128,0.267-0.25,0.375-0.397l0.174-0.211
					l0.088-0.105c0.11-0.131,0.129-0.202,0.194-0.326l0.656-1.322c0.224-0.545,0.454-1.252,0.682-1.873
					c0.505-1.411,1.006-2.81,1.424-3.977c-0.056,1.4-0.111,2.796-0.166,4.187c-0.02,0.905-0.039,1.807-0.058,2.706l0.169,0.498
					l0.084,0.248c0.029,0.091,0.057,0.17,0.076,0.171c0.096,0.088,0.147,0.209,0.263,0.286c0.398,0.354,1.007,0.577,1.655,0.693
					c1.32,0.216,2.734,0.081,4.042-0.132c2.636-0.449,4.963-1.259,6.838-2.051c1.882-0.797,3.314-1.631,4.22-2.318
					c0.453-0.343,0.771-0.65,0.976-0.87C736.238,90.851,736.338,90.729,736.338,90.729z"/>
			</g>
		</g>
	</g>
	<g>
		<g>
			<g>
				<path fill="#93883E" d="M774.836,70.044c0,0-0.141-0.039-0.408-0.111c-0.272-0.065-0.66-0.213-1.134-0.467
					c-0.943-0.497-2.189-1.632-2.943-3.468c-0.771-1.81-1.119-4.2-0.749-6.785c0.194-1.289,0.563-2.633,1.201-3.941
					c0.65-1.294,1.585-2.584,2.966-3.499c0.937-0.629,2.062-0.956,3.008-1.015l5.877-0.365l-5.448,2.092
					c-0.671,0.257-1.393,0.51-2.295,0.403c-0.442-0.044-0.932-0.269-1.285-0.6c-0.348-0.341-0.562-0.75-0.667-1.122
					c-0.225-0.756-0.192-1.425-0.13-2.049c0.065-0.626,0.209-1.2,0.367-1.748c0.668-2.177,1.692-3.898,2.696-5.207
					c1.007-1.31,2.043-2.174,2.834-2.616c0.389-0.23,0.718-0.358,0.941-0.427c0.223-0.067,0.34-0.102,0.34-0.102
					s-0.108,0.056-0.314,0.163c-0.203,0.107-0.496,0.285-0.829,0.567c-0.678,0.546-1.521,1.507-2.307,2.864
					c-0.783,1.349-1.56,3.096-1.993,5.103c-0.201,0.973-0.322,2.127-0.04,2.924c0.17,0.387,0.293,0.499,0.613,0.523
					c0.333,0.031,0.849-0.113,1.349-0.332c0.137,0.553,0.275,1.106,0.429,1.727c-0.677,0.068-1.45,0.298-2.141,0.76
					c-1.016,0.671-1.81,1.68-2.405,2.764c-0.585,1.095-0.982,2.264-1.237,3.406c-0.495,2.295-0.406,4.487,0.086,6.199
					c0.473,1.733,1.425,2.918,2.234,3.539c0.404,0.312,0.754,0.523,1.004,0.634C774.704,69.98,774.836,70.044,774.836,70.044z"/>
			</g>
		</g>
	</g>
	<g>
		<g>
			<g>
				<path fill="#93883E" d="M612.514,3.679c0,0,0.542-0.164,1.541-0.466c1.002-0.296,2.465-0.735,4.354-1.151
					c1.891-0.377,4.211-0.852,6.973-0.549c0.345,0.067,0.695,0.134,1.05,0.203c0.35,0.118,0.712,0.224,1.068,0.371
					c0.34,0.2,0.718,0.332,1.037,0.612c0.328,0.266,0.667,0.545,0.898,0.849c0.25,0.305,0.497,0.613,0.719,0.993
					c0.209,0.383,0.455,0.799,0.449,1.482c0.026,0.714-0.63,1.348-1.096,1.537c-0.488,0.232-0.935,0.314-1.375,0.386l-4.242,0.698
					l3.72-2.232c0.78-0.468,1.606-0.674,2.432-0.814c0.828-0.131,1.671-0.188,2.517-0.166c1.695,0.028,3.421,0.276,5.139,0.702
					c1.403,0.353,2.759,0.817,4.038,1.415c1.276,0.597,2.483,1.343,3.492,2.349c0.994,0.963,1.8,2.476,1.54,3.97
					c-0.023,0.372-0.175,0.692-0.273,1.026c-0.067,0.15-0.146,0.284-0.217,0.425l-0.109,0.208l-0.052,0.099l-0.014,0.016
					c-0.061,0.082-0.2,0.196-0.273,0.284c0.058,0.003,0.123-0.004,0.197,0.01c0.036,0.006,0.075,0.006,0.115,0.018l0.071,0.017
					l0.175,0.034c0.666,0.167,1.303,0.51,1.766,1c0.949,1.003,1.102,2.278,1.077,3.315c-0.128,2.122-0.975,3.784-1.924,4.899
					c-0.953,1.129-2.157,1.595-2.934,1.486c-0.777-0.079-1.108-0.358-1.116-0.329c0.003-0.028,0.378,0.202,1.118,0.189
					c0.741,0.013,1.772-0.527,2.547-1.649c0.774-1.101,1.407-2.746,1.367-4.597c-0.042-0.904-0.29-1.889-0.96-2.478
					c-0.325-0.296-0.74-0.487-1.214-0.579l-0.26-0.032c-0.107-0.021-0.251-0.017-0.384-0.022c-0.262-0.014-0.602,0.046-0.907,0.066
					c-0.61,0.065-1.227,0.13-1.85,0.196c0.578-0.69,1.292-1.481,1.944-2.355c0.42-0.625,0.496-0.962,0.553-1.436
					c0.111-0.883-0.37-1.793-1.187-2.558c-1.661-1.541-4.193-2.532-6.771-3.195c-1.595-0.396-3.205-0.643-4.738-0.698
					c-1.51-0.051-3.047,0.076-4.066,0.616c-0.189-0.556-0.378-1.112-0.522-1.534c0.339-0.04,0.672-0.103,0.89-0.197
					c0.228-0.117,0.212-0.105,0.235-0.185c0.013-0.084-0.063-0.383-0.21-0.645c-0.138-0.273-0.339-0.554-0.536-0.823
					c-0.74-1.01-1.895-1.518-3.121-1.761c-2.455-0.445-4.787-0.194-6.665,0.01c-1.891,0.237-3.39,0.516-4.418,0.696
					C613.073,3.581,612.514,3.679,612.514,3.679z"/>
			</g>
		</g>
	</g>
	<g>
		<g>
			<g>
				<path fill="#93883E" d="M896.935,120.895c0,0-0.098,0.32-0.283,0.928c-0.245,0.585-0.641,1.459-1.436,2.397
					c-1.561,1.879-4.716,3.903-9.053,4.736c-2.159,0.406-4.613,0.572-7.212,0.091c-1.294-0.244-2.629-0.653-3.895-1.372
					c-1.252-0.713-2.468-1.774-3.171-3.23c-0.179-0.359-0.344-0.727-0.445-1.12c-0.053-0.194-0.134-0.386-0.161-0.585l-0.04-0.221
					c0-0.026-0.013-0.038-0.041-0.032l-0.03,0l-0.014,0l-0.114-0.012c-0.35-0.046-0.717-0.057-1.078-0.087
					c-1.456-0.092-2.971-0.11-4.53-0.159c-3.095-0.126-6.486-0.23-9.743-1.72c-1.734-0.802-3.195-2.078-4.309-3.548l-0.409-0.581
					c-0.13-0.198-0.224-0.429-0.335-0.643c-0.24-0.419-0.363-0.903-0.492-1.377c-0.188-0.96-0.185-1.984,0.102-2.874
					c0.5-1.827,1.595-3.176,2.597-4.415c0.254-0.314,0.52-0.601,0.779-0.896c0.238-0.26,0.474-0.519,0.708-0.775
					c0.069-0.066,0.197-0.173,0.267-0.263c-0.071,0-0.155,0.005-0.253-0.001c-0.361-0.013-0.718-0.026-1.071-0.038
					c-1.042-0.079-2.054-0.246-3.019-0.514c-1.919-0.561-3.641-1.516-4.911-2.807c-1.294-1.264-2.084-2.869-2.338-4.415
					c-0.239-1.555,0.026-3.022,0.545-4.186c1.05-2.356,2.655-3.654,3.697-4.464c0.535-0.406,0.967-0.685,1.265-0.863
					c0.293-0.184,0.445-0.279,0.445-0.279s-0.144,0.108-0.421,0.315c-0.282,0.201-0.688,0.513-1.186,0.954
					c-0.97,0.873-2.441,2.277-3.277,4.542c-0.416,1.117-0.564,2.463-0.275,3.832c0.307,1.361,1.071,2.732,2.278,3.799
					c1.183,1.091,2.762,1.877,4.513,2.313c0.881,0.206,1.804,0.321,2.753,0.359l0.717-0.001l0.209,0l0.352-0.03l0.716-0.066
					c0.964-0.075,1.94-0.211,2.944-0.331c-0.796,0.956-1.714,1.999-2.626,3.046c-0.268,0.311-0.539,0.623-0.811,0.939
					c-0.241,0.29-0.494,0.578-0.723,0.876c-0.92,1.181-1.851,2.45-2.18,3.82c-0.211,0.679-0.176,1.363-0.048,2.03
					c0.103,0.329,0.177,0.666,0.37,0.98c0.087,0.158,0.148,0.326,0.252,0.479l0.331,0.456c0.953,1.22,2.17,2.287,3.628,2.959
					c2.77,1.284,5.976,1.465,9.028,1.625c1.539,0.074,3.069,0.122,4.588,0.254c0.381,0.04,0.757,0.061,1.137,0.12l0.937,0.123
					c0.162,0.032,0.361,0.024,0.49,0.088l0.073,0.512l0.122,0.858c0.015,0.161,0.079,0.307,0.115,0.462
					c0.067,0.312,0.189,0.6,0.32,0.884c0.505,1.146,1.443,2.039,2.496,2.694c1.061,0.657,2.247,1.082,3.428,1.355
					c2.374,0.548,4.72,0.513,6.804,0.233c4.194-0.576,7.351-2.312,8.992-4.021c0.834-0.852,1.288-1.674,1.576-2.234
					C896.813,121.204,896.935,120.895,896.935,120.895z"/>
			</g>
		</g>
	</g>
	<g>
		<g>
			<g>
				<path fill="#93883E" d="M999.212,98.773c0,0,0.379,0.188,1.099,0.545c0.71,0.376,1.754,0.964,2.936,1.956
					c0.587,0.498,1.216,1.095,1.78,1.858c0.586,0.743,1.108,1.658,1.454,2.726c0.351,1.063,0.51,2.294,0.328,3.574
					c-0.177,1.277-0.694,2.589-1.551,3.749c-1.696,2.33-4.861,3.917-8.268,3.761c-1.697-0.059-3.422-0.499-5.048-1.238
					c-0.395-0.183-0.842-0.382-1.182-0.593c-0.088-0.026-0.183-0.151-0.206-0.014c-0.313,0.648-0.631,1.304-0.952,1.969
					c-0.776,1.614-1.649,3.44-3.241,4.841c-0.78,0.7-1.712,1.228-2.674,1.62c-0.477,0.216-0.984,0.347-1.485,0.508
					c-0.518,0.086-1.038,0.172-1.56,0.259c-2.097,0.232-4.286-0.044-6.311-0.866c-0.492-0.235-0.985-0.471-1.481-0.708l-1.371-0.92
					c-0.454-0.314-0.834-0.723-1.254-1.085l-0.308-0.281l-0.077-0.07l-0.02-0.023l-0.031-0.038l-0.125-0.15l-0.123-0.149l0,0l0,0
					l-0.2,0.318c-0.318,0.515-0.682,0.983-1.058,1.431c-0.758,0.892-1.598,1.676-2.483,2.379c-1.774,1.398-3.72,2.5-5.796,3.207
					c-2.05,0.678-4.38,1.029-6.521,0.119c-1.051-0.45-1.942-1.253-2.508-2.176c-0.166-0.22-0.256-0.471-0.383-0.705l-0.088-0.178
					l-0.022-0.044l-0.011-0.022c0.021,0.043,0.023,0.043,0.02,0.037l-0.004-0.014l-0.017-0.058
					c-0.028-0.065-0.033-0.197-0.061-0.239c-0.029,0.043-0.049,0.096-0.091,0.14l-0.063,0.07c-0.025,0.024,0.01-0.003-0.065,0.064
					l-0.189,0.169c-0.476,0.457-1.077,0.863-1.665,1.159c-1.187,0.617-2.413,0.969-3.605,1.224
					c-2.394,0.477-4.682,0.568-6.818,0.559c-2.106,0.005-4.157-0.045-5.995-0.428c-1.843-0.356-3.488-1.016-4.795-1.886
					c-1.304-0.874-2.282-1.926-2.899-2.97c-0.631-1.035-1-2.002-1.227-2.798c-0.103-0.401-0.193-0.756-0.271-1.062
					c-0.049-0.312-0.09-0.574-0.123-0.786c-0.065-0.422-0.099-0.64-0.099-0.64s0.048,0.216,0.141,0.633
					c0.046,0.208,0.103,0.466,0.171,0.773c0.096,0.298,0.207,0.644,0.333,1.034c0.53,1.508,1.661,3.82,4.267,5.352
					c1.28,0.76,2.862,1.312,4.642,1.573c1.785,0.287,3.723,0.255,5.844,0.167c2.091-0.072,4.317-0.247,6.551-0.769
					c1.108-0.273,2.222-0.64,3.219-1.198c0.26-0.127,0.488-0.292,0.715-0.457c0.238-0.145,0.446-0.36,0.658-0.566l0.16-0.154
					c0.046-0.031,0.16-0.253,0.237-0.37l0.518-0.86c0.356-0.577,0.618-1.177,0.937-1.776c0.232,0.771,0.414,1.687,0.705,2.547
					l0.203,0.662l0.051,0.166l0.03,0.083l0.009,0.017l0.018,0.034l0.073,0.136c0.105,0.176,0.176,0.379,0.307,0.534
					c0.447,0.684,1.072,1.214,1.832,1.524c1.532,0.635,3.495,0.382,5.314-0.264c1.837-0.654,3.623-1.688,5.227-2.975
					c0.8-0.646,1.555-1.362,2.216-2.148c0.327-0.394,0.641-0.801,0.903-1.228l0.1-0.16l0.05-0.08l0.025-0.04l0.035-0.065
					l0.023-0.049l0.365-0.793c0.253-0.527,0.459-1.066,0.689-1.601c0.294,0.356,0.601,0.726,0.908,1.098
					c1.364,1.723,1.823,2.019,2.604,2.681l1.177,0.799l1.27,0.614c1.733,0.715,3.609,0.968,5.41,0.795
					c0.447-0.066,0.892-0.132,1.336-0.198c0.425-0.135,0.862-0.236,1.267-0.414c0.823-0.321,1.584-0.735,2.223-1.289
					c1.298-1.089,2.13-2.663,2.939-4.261c0.205-0.404,0.41-0.805,0.612-1.204l0.318-0.599l0.545-0.985l0.288-0.515
					c0.032-0.143,0.129-0.048,0.214,0.001l0.254,0.151l0.997,0.596c0.393,0.256,0.733,0.409,1.107,0.598
					c1.463,0.716,2.999,1.157,4.509,1.261c3.026,0.24,5.87-1.053,7.479-3.067c1.649-2.015,1.981-4.596,1.393-6.591
					c-0.546-2.037-1.799-3.5-2.868-4.537c-1.101-1.036-2.101-1.684-2.783-2.101C999.577,98.985,999.212,98.773,999.212,98.773z"/>
			</g>
		</g>
	</g>
	<g>
		<g>
			<g>
				<path fill="#93883E" d="M998.35,36.143c0,0,0.494-0.312,1.433-0.906c0.929-0.607,2.285-1.537,3.875-2.912
					c1.549-1.379,3.48-3.232,4.552-5.963c0.492-1.361,0.624-2.955,0.104-4.487l-0.187-0.579c-0.081-0.188-0.196-0.364-0.292-0.549
					c-0.219-0.356-0.362-0.76-0.661-1.082c-0.267-0.339-0.537-0.682-0.811-1.03c-0.324-0.293-0.652-0.59-0.985-0.89
					c-1.394-1.103-3.263-1.761-5.17-1.46l-0.708,0.139l-0.356,0.069l-0.343,0.133c-0.475,0.194-0.832,0.263-1.622,0.757
					l-1.053,0.604l-0.133,0.076c-0.019,0.005-0.051,0.042-0.06,0.022l-0.019-0.081l-0.077-0.324l-0.154-0.653
					c-0.244-1.056-0.349-1.336-0.528-1.897c-0.684-2.023-1.744-4.034-3.382-5.503c-0.818-0.725-1.786-1.287-2.839-1.616
					c-1.042-0.331-2.14-0.345-3.269-0.108c-2.273,0.467-4.429,1.846-6.963,2.853c-1.27,0.49-2.716,0.891-4.28,0.704
					c-1.584-0.177-2.911-1.061-4.01-1.936c-1.096-0.891-2.059-1.831-3.129-2.482c-1.061-0.68-2.218-1.018-3.494-1.014
					c-1.313-0.01-2.634,0.107-3.792,0.598c-1.17,0.475-2.199,1.275-3.108,2.281c-0.458,0.498-0.889,1.036-1.307,1.596l-0.622,0.849
					l-0.805,1.131l-1.23,1.732l-0.038,0.054c-0.012-0.003-0.022-0.034-0.034-0.049l-0.066-0.115l-0.133-0.229l-0.265-0.458
					l-0.529-0.913c-0.43-0.763-0.551-0.877-0.735-1.187c-0.187-0.274-0.389-0.531-0.581-0.797c-0.817-1-1.76-1.871-2.853-2.247
					c-1.08-0.41-2.291-0.336-3.493,0.011c-2.422,0.708-4.717,2.163-7.176,3.222c-0.613,0.272-1.243,0.518-1.883,0.736
					c-0.69,0.224-1.085,0.351-2.483,0.636l-0.219,0.046c-0.031-0.003-0.085,0.039-0.097,0l-0.04-0.105l-0.161-0.418l-0.32-0.839
					l-0.315-0.847c-0.266-0.519-0.534-1.042-0.842-1.519c-0.662-0.918-1.47-1.682-2.442-2.123c-0.985-0.391-2.064-0.546-3.147-0.409
					c-2.172,0.271-4.201,1.332-5.962,2.542c-0.885,0.614-1.702,1.298-2.473,2.004c-0.199,0.17-0.371,0.366-0.557,0.547l-0.888,0.906
					l-0.111,0.113c-0.037,0.047-0.071-0.043-0.107-0.058l-0.211-0.196l-0.419-0.389c-0.27-0.249-0.588-0.549-0.742-0.678
					c-1.518-1.344-3.073-2.528-4.7-3.398c-1.619-0.88-3.287-1.477-4.922-1.737c-1.634-0.266-3.223-0.189-4.66,0.115
					c-1.439,0.304-2.738,0.78-3.871,1.359c-1.138,0.566-2.122,1.197-2.947,1.84c-1.659,1.284-2.636,2.639-3.096,3.642
					c-0.225,0.504-0.365,0.906-0.418,1.186c-0.065,0.277-0.099,0.42-0.099,0.42s0.027-0.144,0.079-0.424
					c0.039-0.283,0.161-0.693,0.365-1.213c0.419-1.034,1.351-2.457,2.987-3.833c0.813-0.69,1.79-1.372,2.93-1.996
					c1.134-0.635,2.456-1.18,3.942-1.549c1.484-0.37,3.154-0.512,4.89-0.289c1.737,0.217,3.521,0.793,5.246,1.664
					c1.734,0.862,3.385,2.046,4.988,3.389l0.419,0.355l0.16,0.138c0.049,0.028,0.116,0.14,0.142,0.062l0.212-0.235
					c0.19-0.194,0.365-0.405,0.569-0.589c0.789-0.762,1.63-1.504,2.554-2.179c1.845-1.326,3.979-2.543,6.519-2.922
					c1.267-0.186,2.633-0.047,3.911,0.446c1.274,0.543,2.319,1.503,3.128,2.596c0.378,0.558,0.699,1.157,1.013,1.754l0.366,0.928
					c0.019,0.023,0.018,0.094,0.059,0.08c-0.147,0.037,0.7-0.185,1.232-0.38c0.581-0.208,1.16-0.442,1.738-0.708
					c2.33-1.025,4.57-2.523,7.373-3.39c0.705-0.201,1.451-0.353,2.234-0.377c0.782-0.019,1.593,0.101,2.35,0.371
					c1.544,0.534,2.72,1.652,3.669,2.801c0.221,0.3,0.454,0.596,0.665,0.903c0.189,0.289,0.482,0.742,0.395,0.606
					c0.003,0.005,0.005-0.003,0.005-0.003l0.434-0.611l0.644-0.882c0.438-0.588,0.905-1.173,1.422-1.736
					c1.018-1.13,2.294-2.144,3.774-2.737c1.482-0.614,3.04-0.736,4.522-0.718c1.532-0.008,3.15,0.476,4.406,1.311
					c1.288,0.807,2.286,1.815,3.292,2.64c0.995,0.81,2.029,1.474,3.127,1.597c1.099,0.148,2.296-0.126,3.454-0.561
					c2.332-0.871,4.591-2.295,7.256-2.815c1.313-0.262,2.76-0.22,4.029,0.218c1.263,0.421,2.398,1.12,3.332,1.983
					c1.866,1.753,2.948,3.989,3.63,6.165c0.078,0.276,0.17,0.547,0.236,0.823c0.089,0.356,0.091,0.363,0.11,0.467l0.026,0.141
					c0.011,0.044,0,0.125,0.08,0.06l0.355-0.187c0.113-0.1,0.786-0.322,1.293-0.501l0.396-0.138l0.413-0.073l0.821-0.136
					c2.216-0.286,4.37,0.551,5.877,1.829c0.357,0.344,0.71,0.685,1.059,1.021c0.285,0.385,0.566,0.765,0.844,1.141
					c0.305,0.355,0.461,0.808,0.683,1.204c0.099,0.206,0.214,0.402,0.297,0.612l0.19,0.649c0.522,1.719,0.303,3.487-0.276,4.915
					c-1.251,2.863-3.292,4.638-4.911,5.974c-1.662,1.322-3.06,2.193-4.018,2.759C998.865,35.868,998.35,36.143,998.35,36.143z"/>
			</g>
		</g>
	</g>
	<g>
		<g>
			<g>
				<path fill="#93883E" d="M996.914,81.248c0,0,0.658-0.28,1.836-0.78c1.171-0.517,2.885-1.239,4.858-2.348
					c0.992-0.542,2.031-1.209,3.065-2.001c1.026-0.796,2.046-1.742,2.834-2.902c0.177-0.298,0.357-0.6,0.538-0.905
					c0.135-0.324,0.295-0.645,0.42-0.974c0.081-0.336,0.218-0.664,0.268-1.006c0.019-0.346,0.077-0.686,0.038-1.05
					c-0.019-1.446-0.693-2.835-1.602-4.27c-0.886-1.436-2.009-2.949-2.359-4.846c-0.109-0.46-0.112-0.936-0.12-1.404
					c0.056-0.478,0.071-0.958,0.243-1.4c0.256-0.911,0.774-1.662,1.296-2.283c1.048-1.245,2.249-2.102,2.806-3.082
					c0.609-0.931,0.158-2-0.465-2.887c-0.17-0.228-0.337-0.45-0.499-0.667c-0.153-0.234-0.279-0.379-0.451-0.551
					c-0.34-0.319-0.742-0.558-1.128-0.759c-0.784-0.395-1.533-0.617-2.148-0.756c-1.24-0.293-1.958-0.179-1.958-0.179
					s0.168-0.062,0.508-0.104c0.339-0.039,0.845-0.059,1.494-0.002c0.649,0.058,1.443,0.183,2.336,0.505
					c0.443,0.169,0.917,0.376,1.375,0.718c0.219,0.166,0.463,0.402,0.629,0.613c0.187,0.202,0.378,0.41,0.573,0.623
					c0.214,0.205,0.385,0.482,0.566,0.759c0.201,0.259,0.329,0.593,0.454,0.94c0.232,0.685,0.223,1.608-0.161,2.311
					c-0.706,1.432-1.899,2.35-2.714,3.484c-0.871,1.112-1.248,2.361-0.907,3.769c0.28,1.384,1.244,2.711,2.193,4.22
					c0.951,1.489,1.835,3.312,1.802,5.207c0.029,0.462-0.051,0.933-0.106,1.392c-0.085,0.452-0.266,0.872-0.4,1.298
					c-0.173,0.404-0.38,0.78-0.568,1.161c-0.226,0.356-0.465,0.697-0.695,1.036c-1,1.299-2.2,2.253-3.362,3.015
					c-1.171,0.757-2.314,1.348-3.387,1.801c-2.135,0.931-3.936,1.437-5.171,1.794C997.605,81.084,996.914,81.248,996.914,81.248z"/>
			</g>
		</g>
	</g>
	<g>
		<g>
			<g>
				<path fill="#93883E" d="M965.311,93.602c0,0,0.025,0.184,0.073,0.533c0.057,0.35,0.09,0.876,0.048,1.556
					c-0.069,1.332-0.669,3.435-2.576,5.137c-1.855,1.698-4.802,2.914-8.159,2.887c-1.67-0.012-3.464-0.336-5.149-1.178
					c-0.837-0.423-1.653-0.961-2.36-1.657c-0.342-0.357-0.687-0.722-0.97-1.141l-0.241-0.337c-0.007-0.008-0.016-0.035-0.02-0.026
					c-0.633,0.277-1.259,0.55-1.876,0.819c-0.828,0.351-1.66,0.682-2.498,0.97c-1.67,0.581-3.395,0.976-5.1,0.995
					c-1.701,0.046-3.388-0.462-4.635-1.372c-0.646-0.423-1.153-0.994-1.577-1.562c-0.389-0.597-0.702-1.206-0.879-1.818
					c-0.391-1.216-0.423-2.342-0.437-3.302c-0.001-0.964,0.053-1.782,0.088-2.45c0.079-1.334,0.069-2.076,0.069-2.076
					s0.125,0.733,0.219,2.073c0.051,0.668,0.099,1.486,0.206,2.419c0.118,0.925,0.271,1.988,0.72,3.019
					c0.783,2.109,3.259,3.781,6.18,3.517c1.457-0.097,2.994-0.506,4.55-1.101c0.78-0.294,1.568-0.627,2.369-0.982
					c1.008-0.448,2.03-0.902,3.065-1.362l0.31-0.135c0.062,0.074,0.111,0.185,0.167,0.276l0.326,0.573l0.318,0.558l0.174,0.241
					c0.217,0.333,0.489,0.621,0.754,0.91c0.552,0.561,1.203,1.012,1.886,1.384c1.374,0.741,2.918,1.101,4.394,1.191
					c2.973,0.189,5.712-0.682,7.518-2.043c1.853-1.354,2.642-3.19,2.879-4.466c0.125-0.644,0.165-1.164,0.158-1.513
					C965.309,93.788,965.311,93.602,965.311,93.602z"/>
			</g>
		</g>
	</g>
	<g>
		<g>
			<g>
				<path fill="#93883E" d="M846.659,23.502c0,0-0.139-0.024-0.4-0.07c-0.259-0.06-0.662-0.09-1.149-0.243
					c-0.989-0.26-2.4-0.797-3.953-1.838c-0.389-0.26-0.79-0.543-1.169-0.891c-0.193-0.169-0.398-0.335-0.593-0.519
					c-0.184-0.197-0.372-0.397-0.562-0.601c-0.404-0.39-0.709-0.897-1.074-1.38c-0.162-0.256-0.298-0.538-0.45-0.815l-0.223-0.423
					l-0.164-0.463c-0.097-0.316-0.245-0.62-0.297-0.961c-0.053-0.342-0.107-0.687-0.161-1.036c0.001-0.709-0.002-1.455,0.24-2.17
					l0.147-0.545c0.071-0.172,0.161-0.337,0.243-0.507c0.181-0.327,0.314-0.7,0.55-0.992l0.347-0.446l0.088-0.111
					c0.028-0.036,0.006-0.007,0.011-0.013c-0.003,0.005-0.004,0.006-0.004,0.006l-0.003-0.001l0.001-0.001
					c0,0-0.003-0.001,0.006-0.001l0.109-0.001l0.423-0.008l0.101-0.003l0.021-0.001l-0.124-0.001l-0.247-0.002l-0.981-0.007
					c-0.147-0.234-0.176-0.606-0.274-0.912l-0.185-0.752c-0.272-1.491,0.112-3.028,0.836-4.149c0.707-1.151,1.656-1.953,2.568-2.581
					c0.908-0.65,1.83-1.091,2.666-1.483c1.695-0.736,3.126-1.12,4.116-1.355c0.994-0.224,1.55-0.297,1.55-0.297
					s-0.531,0.186-1.462,0.571c-0.926,0.395-2.259,0.992-3.781,1.899c-0.745,0.473-1.564,0.991-2.32,1.662
					c-0.769,0.649-1.519,1.431-1.993,2.365c-0.492,0.923-0.677,1.972-0.448,3.04l0.058,0.2l0.001-0.004
					c-0.002-0.008,0.007,0,0.007,0l0.014-0.007l0.002-0.002l0.001-0.001l0.146-0.001l0.603-0.003
					c0.811-0.003,1.628-0.005,2.449-0.008l0.619-0.001c-0.048,0.089-0.218,0.221-0.322,0.33l-0.721,0.689l-0.724,0.689
					c-0.237,0.227-0.471,0.451-0.781,0.719c-0.158,0.125-0.277,0.259-0.375,0.397l-0.217,0.272l-0.283,0.343
					c-0.196,0.224-0.281,0.499-0.432,0.74c-0.066,0.125-0.142,0.246-0.202,0.372l-0.116,0.397c-0.356,1.039-0.327,2.16,0.002,3.181
					l0.101,0.386l0.161,0.366c0.11,0.242,0.201,0.49,0.32,0.722c0.284,0.442,0.499,0.914,0.828,1.298
					c0.152,0.201,0.301,0.399,0.447,0.594c0.158,0.186,0.328,0.356,0.487,0.532c0.309,0.36,0.648,0.665,0.978,0.953
					c1.318,1.151,2.579,1.882,3.488,2.296c0.447,0.231,0.826,0.329,1.071,0.437C846.527,23.451,846.659,23.502,846.659,23.502z"/>
			</g>
		</g>
	</g>
	<g>
		<g>
			<g>
				<path fill="#93883E" d="M827.123,94.464c-0.04,0.002,0.233,0.671,0.122,1.957c-0.042,0.643-0.299,1.431-0.826,2.21
					c-0.53,0.779-1.37,1.501-2.417,2.041c-2.102,1.089-4.94,1.529-7.996,1.23c-1.53-0.152-3.131-0.483-4.715-1.117
					c-1.569-0.632-3.195-1.537-4.416-3.076c-0.158-0.185-0.3-0.384-0.422-0.6l-0.089-0.147c0.006,0.008,0.01,0.012,0.01,0.012
					l0-0.002l-0.005-0.008l-0.002,0c0,0-0.005,0.002,0.004-0.002c0.053-0.027,0.06-0.03,0.042-0.021l-0.039,0.02l-0.078,0.039
					l-0.314,0.156c-0.21,0.098-0.415,0.217-0.629,0.292c-0.43,0.133-0.85,0.322-1.28,0.392c-1.71,0.394-3.377,0.372-4.913,0.149
					c-3.053-0.471-5.743-1.746-7.242-3.687c-0.164-0.261-0.323-0.515-0.479-0.763c-0.133-0.288-0.208-0.585-0.253-0.849
					c-0.084-0.538-0.091-1.03-0.079-1.485c0.031-0.909,0.137-1.672,0.221-2.294c0.19-1.239,0.255-1.93,0.172-1.92
					c0.083-0.023,0.134,0.691,0.116,1.939c0.003,0.624-0.001,1.39,0.075,2.257c0.041,0.432,0.105,0.89,0.228,1.338
					c0.067,0.227,0.145,0.429,0.255,0.613c0.149,0.188,0.302,0.381,0.458,0.578c1.42,1.505,3.937,2.472,6.715,2.728
					c1.391,0.121,2.878,0.061,4.295-0.315c0.366-0.067,0.685-0.237,1.035-0.347c0.171-0.063,0.319-0.162,0.481-0.239l0.239-0.123
					l0.06-0.03l0.03-0.015c-0.005,0.005,0.012-0.006,0.072-0.048l0.036-0.026l0.253-0.181l1.021-0.731l0.128-0.092
					c0.041-0.022,0.095-0.096,0.108-0.015l0.133,0.281l0.268,0.565l0.269,0.58c0.039,0.103,0.101,0.2,0.163,0.296l0.077,0.124
					c0.085,0.155,0.19,0.301,0.311,0.44c0.904,1.154,2.266,1.987,3.642,2.584c1.386,0.608,2.837,0.982,4.235,1.203
					c2.799,0.442,5.443,0.255,7.416-0.525c0.985-0.387,1.79-0.933,2.341-1.562c0.547-0.628,0.882-1.309,1.003-1.905
					C827.237,95.177,827.086,94.458,827.123,94.464z"/>
			</g>
		</g>
	</g>
	<g>
		<g>
			<g>
				<path fill="#93883E" d="M672.272,65.16c0,0-0.494-0.094-1.368-0.262c-0.424-0.142-0.956-0.332-1.54-0.625
					c-0.279-0.179-0.577-0.369-0.891-0.571c-0.302-0.223-0.573-0.519-0.886-0.806c-2.455-2.408-3.287-7.872-0.641-12.424
					c0.281-0.539,0.661-1.015,1.018-1.473c0.24-0.316,0.188-0.223,0.25-0.288l0.121-0.104c0-0.006-0.004-0.014-0.009-0.027
					c-0.008-0.01,0.012,0.009-0.021-0.026l-0.161-0.169c-0.107-0.111-0.211-0.225-0.303-0.361c-0.386-0.509-0.632-1.176-0.642-1.813
					c-0.006-1.297,0.621-2.228,1.192-2.953c1.213-1.438,2.562-2.291,3.7-2.935c1.13-0.636,2.175-0.983,2.791-1.176
					c0.075-0.041,0.148-0.083,0.199-0.119c0.024-0.001-0.026-0.022,0.062,0.017c0.003,0.005,0.011,0.006,0.015,0.001
					c-0.015,0.012-0.029,0.031-0.036,0.05c0.006,0.006,0.012,0.001,0,0c-0.024-0.007-0.062-0.01-0.094-0.014
					c-0.135-0.013-0.265-0.038-0.344-0.095c-0.16-0.124-0.1-0.272-0.115-0.26c0.014-0.012-0.026,0.121,0.14,0.203
					c0.082,0.034,0.186,0.031,0.319,0.017c0.035-0.003,0.067-0.008,0.115-0.007c0.016,0.018,0.084-0.031,0.115,0.103
					c-0.009,0.079-0.034,0.081-0.051,0.11c-0.063,0.069-0.126,0.123-0.195,0.181c-0.657,0.373-1.506,0.838-2.505,1.624
					c-0.976,0.769-2.139,1.78-3.026,3.103c-0.429,0.651-0.759,1.423-0.684,2.059c0.036,0.316,0.161,0.596,0.388,0.864
					c0.048,0.069,0.118,0.134,0.19,0.199l0.103,0.099l0.294,0.205c0.418,0.298,0.858,0.572,1.303,0.854
					c-0.291,0.303-0.593,0.618-0.904,0.942c-0.285,0.303-0.738,0.738-0.795,0.868c-0.287,0.391-0.602,0.784-0.839,1.246
					c-2.245,3.874-2.034,8.54-0.239,10.914c0.235,0.283,0.433,0.587,0.669,0.828c0.252,0.228,0.491,0.443,0.715,0.645
					c0.483,0.357,0.946,0.627,1.324,0.844C671.815,64.968,672.272,65.16,672.272,65.16z"/>
			</g>
		</g>
	</g>
	<g>
		<g>
			<g>
				<path fill="#93883E" d="M692.095,103.37c0,0-0.381-0.025-1.065-0.123c-0.684-0.1-1.673-0.273-2.872-0.622
					c-1.194-0.36-2.623-0.849-4.068-1.862c-0.702-0.52-1.461-1.185-1.906-2.234c-0.217-0.516-0.333-1.124-0.277-1.724
					c0.06-0.598,0.26-1.156,0.524-1.654c0.145-0.232,0.282-0.479,0.446-0.682c0.113-0.145,0.088-0.109,0.093-0.114l0.007-0.001
					c0.028,0.004-0.007-0.03-0.031-0.062l-0.482-0.529c-0.191-0.185-0.327-0.429-0.446-0.683c-0.129-0.246-0.248-0.49-0.279-0.764
					c-0.04-0.265-0.127-0.531-0.089-0.78c-0.001-1.039,0.408-1.826,0.767-2.497c0.374-0.677,0.802-1.214,1.182-1.707
					c0.775-0.969,1.434-1.691,1.791-2.256c0.166-0.28,0.312-0.514,0.329-0.684c0.037-0.176,0.056-0.27,0.056-0.27
					s0.008,0.097,0.022,0.277c0.031,0.191-0.05,0.46-0.148,0.8c-0.219,0.677-0.715,1.567-1.28,2.636
					c-0.273,0.536-0.587,1.118-0.817,1.745c-0.227,0.618-0.439,1.303-0.351,1.896c-0.019,0.159,0.072,0.282,0.098,0.423
					c0.017,0.144,0.107,0.265,0.189,0.386c0.07,0.126,0.141,0.254,0.281,0.357l0.176,0.169l0.086,0.087
					c0.017,0.016,0.023,0.027,0.048,0.047l0.131,0.086c0.353,0.232,0.709,0.465,1.068,0.701l0.272,0.179l0.136,0.09
					c-0.021,0.039-0.067,0.082-0.1,0.123l-0.435,0.5l-0.452,0.51c-0.163,0.166-0.308,0.391-0.342,0.425
					c-0.124,0.155-0.205,0.32-0.311,0.479c-0.349,0.659-0.441,1.257-0.221,1.849c0.198,0.6,0.696,1.177,1.234,1.663
					c1.108,0.976,2.376,1.672,3.436,2.22c1.072,0.546,1.98,0.937,2.611,1.201C691.736,103.224,692.095,103.37,692.095,103.37z"/>
			</g>
		</g>
	</g>
	<g>
		<g>
			<g>
				<path fill="#93883E" d="M765.929,91.303c0,0-0.93,0.316-2.488,0.55c-1.553,0.222-3.748,0.412-6.184-0.121
					c-1.207-0.284-2.38-0.73-3.303-1.524c-0.453-0.394-0.846-0.88-1.036-1.431c-0.189-0.544-0.214-1.086-0.116-1.524
					c0.181-0.887,0.622-1.405,0.879-1.763c0.294-0.319,0.468-0.507,0.468-0.507s-0.079,0.238-0.214,0.643
					c-0.1,0.411-0.291,1.022-0.214,1.685c0.07,0.666,0.431,1.238,1.166,1.654c0.714,0.432,1.71,0.724,2.78,0.971
					c2.161,0.478,4.253,0.761,5.77,0.996C764.901,91.15,765.929,91.303,765.929,91.303z"/>
			</g>
		</g>
	</g>
	<g>
		<g>
			<g>
				<path fill="#93883E" d="M568.558,40.74c0,0-0.35,0.208-0.964,0.574c-0.624,0.363-1.528,0.887-2.713,1.438
					c-1.187,0.533-2.665,1.15-4.509,1.296c-0.912,0.082-1.93,0.017-2.93-0.329c-0.511-0.139-0.983-0.415-1.459-0.679l-0.664-0.485
					c-0.116-0.078-0.214-0.172-0.31-0.27l-0.123-0.123l-0.008-0.01c-0.007-0.01,0.016-0.013-0.076,0.028l-0.096,0.045
					c-0.043,0.019-0.024,0.015-0.187,0.075c-0.488,0.192-0.977,0.355-1.47,0.46c-0.983,0.21-1.955,0.308-2.879,0.208
					c-1.831-0.149-3.507-0.929-4.374-2.086c-0.892-1.148-0.969-2.327-0.953-3.045c0.074-0.736,0.157-1.121,0.157-1.121
					s0.033,0.408,0.13,1.1c0.146,0.68,0.473,1.673,1.339,2.436c0.84,0.777,2.232,1.189,3.763,1.162
					c0.769,0.007,1.578-0.147,2.382-0.363c0.405-0.109,0.799-0.262,1.193-0.428c0.063-0.016,0.291-0.139,0.463-0.225l0.548-0.279
					l0.276-0.14l0.138-0.07c0.043,0.032,0.086,0.082,0.129,0.123l0.512,0.512l0.384,0.385c0.072,0.078,0.147,0.153,0.233,0.209
					l0.488,0.374c0.35,0.198,0.682,0.428,1.061,0.546c0.728,0.302,1.515,0.426,2.29,0.435c1.554,0.045,3.025-0.303,4.244-0.609
					c1.223-0.32,2.218-0.631,2.909-0.835C568.167,40.852,568.558,40.74,568.558,40.74z"/>
			</g>
		</g>
	</g>
	<g>
		<g>
			<g>
				<path fill="#93883E" d="M769.664-9.537c0,0,0.115-0.12,0.337-0.351c0.231-0.222,0.536-0.595,1.006-1.001
					c0.922-0.83,2.398-1.944,4.517-2.915c4.183-1.956,11.15-3.107,18.809-0.789c-0.016-0.005-0.037-0.011-0.058-0.017
					c1.549,0.409,3.101,1.079,4.481,2.378c0.341,0.329,0.666,0.722,0.922,1.223c0.133,0.239,0.211,0.561,0.28,0.856
					c0.005,0.333,0.053,0.68-0.083,1.001c-0.053,0.159-0.107,0.336-0.179,0.472l-0.242,0.329l-0.163,0.222l-0.012,0.015
					c-0.008,0.004,0.037-0.002,0.037-0.002l0.004-0.002l0-0.001l0.284,0.031c0.467,0.058,0.939,0.116,1.413,0.175
					c2.041,0.297,4.117,0.704,5.998,1.686c1.891,0.936,3.455,2.587,4.187,4.47c0.737,1.848,0.938,3.889,0.173,5.73
					c-0.387,0.91-1.149,1.698-2.044,2.072l-0.337,0.113l-0.09,0.02c-0.049,0.009-0.102,0.007-0.157,0.012
					c-0.109,0.015-0.231-0.013-0.361-0.018c0,0.032,0.133,0.094,0.192,0.165c0.092,0.082,0.129,0.122,0.257,0.288
					c0.514,0.628,0.846,1.423,0.901,2.209c0.108,1.603-0.654,2.881-1.403,3.858c-1.584,1.96-3.461,3.054-5.017,3.781
					c-1.577,0.716-2.92,0.978-3.827,1.035c-0.454,0.03-0.803,0.022-1.034-0.005c-0.232-0.023-0.351-0.035-0.351-0.035
					s0.12,0,0.352,0.001c0.231,0.006,0.577-0.018,1.019-0.088c0.884-0.134,2.168-0.502,3.641-1.311
					c1.448-0.81,3.186-2.018,4.514-3.897c0.636-0.926,1.174-2.084,1.017-3.226c-0.073-0.563-0.327-1.096-0.737-1.552
					c-0.714-0.755-2.439-1.712-3.59-2.446c0.376,0.009,0.755,0.018,1.136,0.028l0.586,0.014l0.661-0.003
					c0.431-0.011,0.932,0.017,1.33-0.024c0.179-0.017,0.385-0.073,0.498-0.13l0.221-0.081c0.553-0.273,0.98-0.743,1.227-1.375
					c0.489-1.27,0.327-2.996-0.334-4.48c-0.642-1.5-1.854-2.747-3.449-3.519c-1.582-0.807-3.48-1.185-5.431-1.465
					c-0.46-0.058-0.917-0.115-1.37-0.171c-0.82-0.093-1.63-0.184-2.422-0.274c-1.568-0.2-3.068-0.392-4.445-0.567
					c0.743-0.266,1.485-0.532,2.224-0.797c0.784-0.286,1.706-0.585,2.091-0.825c0.451-0.234,1.206-0.57,1.134-0.627l0.161-0.176
					c0.026-0.052,0.021-0.089,0.043-0.129c0.168-0.267-0.153-0.88-0.64-1.369c-0.995-1.005-2.402-1.696-3.649-2.062l-0.058-0.017
					c-3.547-1.214-7.062-1.669-10.161-1.589c-3.111,0.04-5.808,0.654-7.923,1.435c-2.119,0.792-3.652,1.761-4.634,2.5
					c-0.499,0.361-0.833,0.7-1.084,0.9C769.79-9.645,769.664-9.537,769.664-9.537z"/>
			</g>
		</g>
	</g>
	<g>
		<g>
			<g>
				<path fill="#93883E" d="M668.537-6.951c0,0-0.19-0.154-0.549-0.446c-0.36-0.294-0.871-0.754-1.466-1.421
					c-0.569-0.673-1.259-1.605-1.466-2.95c-0.094-0.667,0.012-1.431,0.347-2.13c0.331-0.703,0.857-1.335,1.479-1.884
					c1.254-1.099,2.864-1.918,4.632-2.594c1.766-0.671,3.749-1.188,5.806-1.558c1.029-0.204,2.084-0.411,3.188-0.545
					c1.092-0.181,2.23-0.25,3.388-0.331c2.316-0.065,4.766,0.004,7.186,0.581c0.615,0.095,1.198,0.297,1.787,0.458
					c0.581,0.183,1.182,0.307,1.734,0.542c0.458,0.176,0.913,0.351,1.364,0.524c0,0,0.015,0.013,0.019,0.003l0.007-0.011
					l0.203-0.381c1.242-2.148,3.17-3.667,5.142-4.605c1.986-0.948,4.034-1.38,5.943-1.522c1.919-0.122,3.697,0.123,5.272,0.476
					c3.161,0.842,5.314,2.397,6.54,3.781c0.148,0.176,0.289,0.341,0.42,0.497c0.102,0.163,0.322,0.262,0.235,0.466
					c-0.013,0.178-0.06,0.34-0.14,0.464c-0.093,0.122-0.237,0.161-0.357,0.159c-0.498-0.027-0.725,0.071-0.725,0.071
					s0.23-0.133,0.656-0.136c0.103-0.005,0.226-0.048,0.294-0.166c0.056-0.119,0.077-0.269,0.067-0.424
					c0.059-0.174-0.169-0.265-0.283-0.401c-0.135-0.125-0.279-0.258-0.432-0.398c-1.195-1.09-3.47-2.469-6.47-3.013
					c-1.513-0.221-3.189-0.34-4.964-0.122c-1.764,0.236-3.62,0.734-5.354,1.654c-1.727,0.912-3.322,2.282-4.312,4.09l-0.575,1.122
					l-0.193,0.376c-0.073,0.104-0.098,0.333-0.26,0.206l-0.797-0.294c-0.627-0.23-1.258-0.462-1.894-0.696
					c-0.528-0.219-1.09-0.326-1.639-0.496c-0.554-0.148-1.104-0.34-1.677-0.425c-2.261-0.542-4.537-0.63-6.734-0.62
					c-1.102,0.053-2.186,0.086-3.249,0.229c-1.063,0.093-2.106,0.258-3.125,0.416c-2.05,0.282-3.928,0.674-5.658,1.216
					c-1.716,0.541-3.271,1.217-4.458,2.114c-1.195,0.879-1.918,2.085-1.832,3.254c0.071,1.161,0.621,2.122,1.112,2.823
					c0.512,0.7,0.969,1.21,1.293,1.539C668.366-7.125,668.537-6.951,668.537-6.951z"/>
			</g>
		</g>
	</g>
	<g>
		<g>
			<g>
				<path fill="#93883E" d="M599.874-6.951c0,0-0.156-0.055-0.452-0.159c-0.296-0.108-0.744-0.246-1.283-0.52
					c-0.276-0.125-0.581-0.268-0.892-0.47c-0.323-0.184-0.665-0.4-1.003-0.679c-0.693-0.529-1.432-1.257-1.977-2.268
					c-0.552-0.996-0.904-2.281-0.801-3.65c0.09-1.364,0.545-2.798,1.38-4.076c0.814-1.292,1.98-2.45,3.433-3.303
					c1.451-0.839,3.248-1.343,5.101-1.129c0.358,0.048,0.714,0.123,1.06,0.203l0.504,0.165c0.15,0.051,0.39,0.129,0.37,0.13
					c0.055,0.028,0.187,0.093,0.177,0.092c0.004,0.005,0.015,0.019,0.02,0.022c0,0,0.006-0.008,0.012-0.021
					c0.006-0.011-0.006,0.051,0.041-0.248c0.032-0.213,0.115-0.41,0.173-0.613c0.286-0.795,0.763-1.452,1.284-1.987
					c1.064-1.062,2.294-1.689,3.47-2.151c2.373-0.889,4.628-1.072,6.465-0.882c1.839,0.184,3.282,0.893,3.906,1.728
					c0.616,0.843,0.52,1.451,0.559,1.43c-0.031,0.025-0.061-0.592-0.737-1.27c-0.679-0.669-2.05-1.126-3.772-1.103
					c-1.714,0.018-3.807,0.411-5.879,1.375c-1.022,0.489-2.054,1.128-2.824,1.991c-0.376,0.431-0.679,0.912-0.839,1.421
					c-0.027,0.13-0.083,0.254-0.094,0.386l-0.034,0.28c-0.012,0.177-0.011,0.345,0.022,0.557c0.153,0.83,0.307,1.667,0.462,2.51
					c-0.463-0.286-0.946-0.585-1.444-0.893c-0.519-0.33-0.945-0.527-1.443-0.809c-0.295-0.174-0.351-0.157-0.493-0.209l-0.383-0.124
					c-0.263-0.056-0.531-0.113-0.802-0.15c-2.825-0.325-5.554,1.4-7.03,3.475c-1.557,2.084-1.858,4.64-1.037,6.452
					c0.372,0.921,0.953,1.66,1.534,2.233c0.281,0.3,0.576,0.547,0.859,0.764c0.27,0.234,0.544,0.412,0.792,0.572
					c0.484,0.342,0.899,0.545,1.173,0.698C599.728-7.031,599.874-6.951,599.874-6.951z"/>
			</g>
		</g>
	</g>
	<g>
		<g>
			<g>
				<path fill="#93883E" d="M989.731-4.94c0,0,0.489-0.264,1.381-0.826c0.885-0.566,2.202-1.415,3.657-2.773
					c0.704-0.696,1.45-1.524,2.014-2.568c0.563-1.032,0.871-2.341,0.515-3.643c-0.354-1.285-1.236-2.561-2.465-3.447
					c-1.229-0.919-2.885-1.262-4.599-1.238c-1.728,0.04-3.537,0.445-5.386,0.991c-0.926,0.273-1.867,0.59-2.831,0.909
					c-1.004,0.293-1.811,0.692-2.77,1.178c-0.927,0.471-1.93,1.028-3.139,1.26c-0.292,0.086-0.603,0.097-0.918,0.104
					c-0.314,0.017-0.629,0.03-0.937-0.047l-0.513-0.093l-0.349-0.066c-0.058-0.015-0.126-0.014-0.175-0.042l-0.102-0.152
					l-0.597-0.888c-0.629-0.912-1.201-1.831-1.912-2.774c-0.342-0.471-0.687-0.945-1.034-1.422l-0.13-0.179l-0.065-0.09
					c-0.013-0.018,0.006,0.01-0.004-0.004c-0.005-0.011-0.017-0.014-0.043-0.031l-0.168-0.111c-0.232-0.151-0.458-0.318-0.703-0.444
					c-1.897-1.129-4.207-1.598-6.303-0.817c-1.043,0.376-2.019,1.005-2.885,1.795l-0.165,0.145l-0.296,0.299l-0.62,0.63
					l-0.311,0.316l-0.344-0.307l-0.692-0.624l-0.816-0.733c-0.227-0.216-0.479-0.401-0.723-0.597
					c-1.945-1.574-4.117-2.945-6.486-3.882c-2.36-0.929-4.939-1.429-7.474-1.114c-2.531,0.33-4.876,1.458-6.795,3.084l-0.724,0.605
					l-0.651,0.688l-1.234,1.305l-0.167,0.177c-0.055,0.049-0.113,0.168-0.164,0.052l-0.314-0.374l-0.624-0.744l-0.469-0.56
					c-0.102-0.125-0.207-0.246-0.314-0.364l-0.636-0.714c-0.429-0.468-0.867-0.922-1.313-1.362
					c-1.787-1.746-3.761-3.219-5.939-4.062c-2.167-0.855-4.505-1.016-6.722-0.632c-1.111,0.219-2.187,0.492-3.207,0.911
					c-1.015,0.43-2.015,0.946-2.972,1.489c-0.966,0.534-1.896,1.16-3.036,1.59c-1.147,0.454-2.453,0.4-3.526,0.146
					c-1.091-0.252-2.093-0.653-3.027-1.016c-0.947-0.366-1.874-0.714-2.789-1.034c-1.83-0.639-3.612-1.159-5.342-1.478
					c-1.726-0.313-3.409-0.455-4.962-0.24c-1.552,0.2-2.957,0.707-4.131,1.437c-1.116,0.803-2.077,1.696-2.726,2.715
					c-0.706,0.975-1.28,1.927-1.631,2.844c-0.672,1.868-0.43,3.49-0.062,4.456c0.143,0.509,0.375,0.844,0.492,1.087
					c0.127,0.239,0.192,0.362,0.192,0.362s-0.071-0.119-0.21-0.351c-0.129-0.237-0.379-0.563-0.548-1.069
					c-0.418-0.956-0.75-2.607-0.136-4.577c0.324-0.973,0.869-1.964,1.552-2.995c0.623-1.07,1.593-2.059,2.75-2.954
					c1.218-0.826,2.707-1.426,4.352-1.696c1.646-0.285,3.416-0.194,5.218,0.073c1.806,0.273,3.655,0.753,5.536,1.349
					c0.941,0.299,1.892,0.626,2.852,0.967c0.969,0.348,1.909,0.689,2.879,0.888c0.971,0.191,1.907,0.204,2.796-0.168
					c0.898-0.356,1.814-0.982,2.795-1.559c0.983-0.586,1.998-1.141,3.101-1.634c1.106-0.481,2.303-0.814,3.511-1.072
					c2.432-0.474,5.128-0.34,7.595,0.598c2.481,0.922,4.658,2.527,6.57,4.358c0.477,0.461,0.943,0.936,1.397,1.422l0.671,0.74
					c0.113,0.123,0.223,0.248,0.33,0.376l0.164,0.191c0.009,0.006,0.012,0.017,0.017,0.008l0.006-0.009
					c0.018-0.021-0.055,0.055,0.116-0.127l0.712-0.757l0.801-0.681c2.123-1.822,4.83-3.146,7.739-3.518
					c2.914-0.361,5.805,0.223,8.375,1.25c2.582,1.037,4.887,2.525,6.929,4.209c0.257,0.21,0.521,0.41,0.758,0.639l0.607,0.558
					c0.015-0.004,0.01,0.061,0.052,0.007l0.284-0.25c1.011-0.9,2.188-1.648,3.488-2.095c1.295-0.463,2.711-0.545,4.027-0.326
					c1.322,0.218,2.541,0.733,3.617,1.386c0.279,0.152,0.527,0.341,0.785,0.515l0.197,0.137c0.089,0.073,0.227,0.123,0.289,0.25
					l0.311,0.443c0.332,0.476,0.661,0.948,0.989,1.418c0.662,0.914,1.281,1.941,1.903,2.892c0.141,0.22,0.367,0.57,0.326,0.514
					c0.01,0.04,0.054,0.027,0.098,0.041l0.304,0.061c0.231,0.072,0.468,0.06,0.703,0.052c0.235,0.001,0.471,0.007,0.707-0.062
					c0.948-0.15,1.873-0.613,2.826-1.072c0.475-0.224,0.961-0.462,1.467-0.66l0.768-0.288l0.736-0.222
					c0.975-0.294,1.935-0.587,2.894-0.839c1.913-0.504,3.816-0.876,5.678-0.859c1.846,0.028,3.698,0.474,5.046,1.554
					c1.346,1.05,2.242,2.455,2.59,3.917c0.345,1.483-0.069,2.924-0.709,3.986c-0.642,1.081-1.445,1.894-2.192,2.573
					c-1.539,1.317-2.897,2.103-3.811,2.629C990.233-5.178,989.731-4.94,989.731-4.94z"/>
			</g>
		</g>
	</g>
	<g>
		<g>
			<g>
				<path fill="#93883E" d="M884.007,26.662c0,0,0.258-0.649,0.811-1.785c0.537-1.137,1.413-2.753,2.192-4.809
					c0.37-1.022,0.7-2.195,0.64-3.356c-0.06-1.171-0.746-2.109-1.941-2.674c-0.316-0.172-0.523-0.257-0.836-0.307
					c-0.296-0.06-0.649-0.075-1.005-0.084c-0.359-0.005-0.737,0.008-1.12,0.024l-0.702,0.037c-0.389,0.014-0.779,0.029-1.171,0.043
					c-0.396,0.011-0.794,0.022-1.194,0.033c-0.037-0.008-0.131,0.023-0.121-0.017l0.052-0.136l0.104-0.273l0.209-0.549
					c0.14-0.369,0.275-0.728,0.45-1.139l0.2-0.695c0.14-0.722,0.236-1.469,0.156-2.234c-0.275-3.09-2.186-5.795-4.189-7.764
					c-2.051-1.982-4.337-3.326-6.388-4.03c-2.057-0.712-3.89-0.704-5.07-0.364c-0.303,0.067-0.558,0.166-0.777,0.262
					c-0.226,0.082-0.408,0.172-0.547,0.261c-0.288,0.163-0.439,0.25-0.439,0.25s0.137-0.109,0.396-0.316
					c0.127-0.112,0.296-0.23,0.513-0.346c0.21-0.131,0.458-0.271,0.76-0.383c1.173-0.524,3.137-0.787,5.413-0.25
					c2.267,0.527,4.835,1.748,7.187,3.769c1.168,1.016,2.28,2.238,3.199,3.692c0.912,1.448,1.619,3.176,1.777,5.074
					c0.095,0.947-0.022,1.901-0.222,2.809l-0.101,0.334l-0.051,0.166c-0.005,0.013-0.003,0-0.003,0l-0.012,0.013
					c-0.016,0.016-0.018,0.026-0.001,0.029l0.025,0.009l0.493-0.007c0.41-0.002,0.819,0.001,1.237,0.026
					c0.42,0.03,0.839,0.065,1.285,0.176c0.436,0.087,0.926,0.317,1.245,0.526c0.358,0.212,0.715,0.406,1.018,0.728
					c0.156,0.147,0.312,0.289,0.458,0.439l0.356,0.536c0.265,0.338,0.343,0.763,0.484,1.142c0.086,0.389,0.113,0.784,0.129,1.157
					c-0.053,1.497-0.559,2.708-1.051,3.746c-1.034,2.061-2.104,3.538-2.79,4.593C884.368,26.066,884.007,26.662,884.007,26.662z"/>
			</g>
		</g>
	</g>
	<g>
		<g>
			<g>
				<path fill="#93883E" d="M1009.267,98.198c0,0,0.024-0.171,0.07-0.496c0.047-0.324,0.126-0.8,0.169-1.417
					c0.036-0.307,0.056-0.649,0.058-1.022c0.022-0.373,0.001-0.776-0.025-1.205c-0.073-0.85-0.243-1.821-0.738-2.708
					c-0.474-0.899-1.342-1.612-2.445-2.089c-1.11-0.478-2.432-0.751-3.855-0.965c-2.841-0.444-6.146-0.625-9.518-1.811
					c-0.209-0.078-0.42-0.143-0.624-0.233l-0.67-0.284l-1.107-0.544l-0.55-0.273l-0.137-0.068l-0.068-0.034
					c0.005-0.018,0.026-0.041,0.038-0.061l0.173-0.248c0.402-0.577,0.801-1.149,1.198-1.718c0.226-0.328,0.457-0.652,0.664-0.977
					c0.831-1.289,1.617-2.59,1.816-3.821c0.146-0.62,0.048-1.177-0.134-1.691c-0.125-0.245-0.227-0.503-0.433-0.711
					c-0.092-0.109-0.17-0.226-0.269-0.33l-0.335-0.284c-0.91-0.738-1.992-1.253-3.016-1.609c-2.017-0.757-3.813-0.838-5.06-0.97
					c-0.619-0.047-1.103-0.159-1.426-0.205c-0.322-0.055-0.492-0.084-0.492-0.084s0.173,0.002,0.502,0.006
					c0.33-0.004,0.803,0.034,1.427-0.005c1.22-0.038,3.09-0.201,5.329,0.38c1.099,0.265,2.317,0.681,3.508,1.491l0.444,0.324
					c0.141,0.124,0.269,0.273,0.405,0.413c0.29,0.264,0.494,0.624,0.702,0.991c0.356,0.751,0.528,1.667,0.388,2.498
					c-0.199,1.706-1.035,3.141-1.867,4.551c-0.211,0.356-0.439,0.695-0.666,1.042l-0.171,0.26l-0.007,0.016l-0.009,0.023
					c-0.001,0.013,0.006,0.001,0.015,0.007l0.491,0.204c0.181,0.08,0.375,0.138,0.563,0.209c3.047,1.082,6.256,1.392,9.178,2.017
					c1.462,0.311,2.879,0.7,4.127,1.362c1.242,0.652,2.271,1.678,2.72,2.814c0.478,1.123,0.525,2.203,0.495,3.105
					c-0.027,0.454-0.06,0.872-0.132,1.251c-0.052,0.381-0.12,0.724-0.199,1.029c-0.131,0.614-0.281,1.076-0.377,1.39
					C1009.318,98.033,1009.267,98.198,1009.267,98.198z"/>
			</g>
		</g>
	</g>
	<g>
		<g>
			<g>
				<path fill="#93883E" d="M927.388,127.79c0,0-0.865-0.037-2.446-0.104c-1.583-0.07-3.889-0.11-6.778-0.44
					c-1.442-0.178-3.033-0.438-4.719-0.939c-1.676-0.499-3.468-1.304-5.061-2.635c-0.777-0.684-1.525-1.496-2.055-2.526
					c-0.532-1.018-0.791-2.287-0.571-3.527c0.207-1.242,0.848-2.379,1.671-3.291c0.198-0.242,0.421-0.452,0.65-0.656l0.342-0.312
					c-0.048,0.042-0.004,0.002-0.012,0.007c0.016-0.021,0.029-0.032,0.029-0.039l-0.063,0.002c0.011,0.004-0.039-0.008-0.074-0.016
					l-0.157-0.04c-0.277-0.081-0.561-0.156-0.84-0.253c-1.125-0.363-2.256-0.858-3.344-1.484c-0.968-0.573-1.893-1.234-2.685-2.076
					c-0.782-0.831-1.469-1.883-1.658-3.133c-0.213-1.257,0.236-2.506,0.855-3.408c0.166-0.217,0.327-0.44,0.502-0.64l0.22-0.232
					l0.023-0.017l0.128-0.083c0.01-0.024-0.062-0.03-0.106-0.047l-0.206-0.037l-0.63-0.088c-0.944-0.131-1.879-0.273-2.793-0.457
					c-1.809-0.394-3.632-0.894-5.031-2.13c-0.334-0.318-0.646-0.658-0.876-1.066c-0.263-0.386-0.338-0.82-0.502-1.216
					c-0.167-0.833-0.229-1.665-0.052-2.42c0.294-1.522,1.043-2.719,1.791-3.68c1.538-1.917,3.134-3.028,4.235-3.724
					c0.553-0.349,0.999-0.584,1.305-0.73c0.306-0.146,0.465-0.222,0.465-0.222s-0.626,0.331-1.66,1.111
					c-1.02,0.781-2.494,2.018-3.817,3.948c-0.644,0.96-1.243,2.127-1.404,3.438c-0.174,1.281,0.179,2.793,1.298,3.652
					c1.124,0.905,2.786,1.323,4.508,1.611c0.873,0.137,1.78,0.239,2.718,0.335c0.663,0.074,1.332,0.148,2.008,0.223
					c0.857,0.121,1.818,0.245,2.669,0.384c-0.706,0.557-1.442,1.151-2.211,1.789c-0.196,0.159-0.362,0.311-0.515,0.481l-0.259,0.289
					c-0.132,0.16-0.243,0.329-0.368,0.493c-0.429,0.683-0.663,1.424-0.524,2.165c0.251,1.519,1.816,2.914,3.498,3.894
					c0.962,0.552,1.982,1.007,2.991,1.342c0.251,0.09,0.504,0.159,0.752,0.235l0.641,0.156c0.232,0.054,0.434,0.112,0.745,0.151
					c1.104,0.18,2.357,0.318,3.351,0.452c-1.043,0.633-2.085,1.242-3.078,1.91c-0.259,0.174-0.479,0.301-0.766,0.511l-0.288,0.253
					c-0.196,0.165-0.385,0.333-0.544,0.522c-0.683,0.721-1.171,1.558-1.347,2.431c-0.397,1.773,0.64,3.52,1.951,4.743
					c1.346,1.234,2.927,2.066,4.492,2.634c1.567,0.57,3.096,0.926,4.496,1.199c2.81,0.523,5.109,0.758,6.679,0.968
					C926.53,127.671,927.388,127.79,927.388,127.79z"/>
			</g>
		</g>
	</g>
</g>
<g>
</g>
<g>
</g>
<g>
</g>
<g>
</g>
<g>
</g>
<g>
</g>
<g>
</g>
</svg>
