<?xml version="1.0" encoding="utf-8"?>
<!-- Generator: Adobe Illustrator 17.0.0, SVG Export Plug-In . SVG Version: 6.00 Build 0)  -->
<!DOCTYPE svg PUBLIC "-//W3C//DTD SVG 1.1//EN" "http://www.w3.org/Graphics/SVG/1.1/DTD/svg11.dtd">
<svg version="1.1" id="real" xmlns="http://www.w3.org/2000/svg" xmlns:xlink="http://www.w3.org/1999/xlink" x="0px" y="0px"
	 width="1024px" height="768px" viewBox="0 0 1024 768" enable-background="new 0 0 1024 768" xml:space="preserve">
<g id="left_tree">
	<path fill="#855914" d="M0,327.228c15.78-31.272,39.838-74.767,61.4-96.56c14.275-12.737,39.513-21.065,59.265-22.187
		c51.911-2.951,75.27-15.791,113.338-36.191c9.346-5.008,20.847-3.81,31.435-6.846c9.344-2.679,17.661-9.792,27.654-11.189
		c10.187-1.425,26.111-6.923,36.658-7.268c15.137-0.494,32.501,1.499,47.585,2.596c47.585,3.461,43.547-34.03,43.547-34.03h-11.247
		c0,0,4.287,3.994,1.154,10.382c-2.837,5.784-12.744,13.929-19.322,15.573c-13.843,3.461,3.461-32.877,3.461-32.877h-5.191
		c0,0-6.921,31.146-10.382,31.146c-3.461,0-46.72,0-57.102,0.865c-10.382,0.865-29.643,3.019-32.238,3.884
		c-2.596,0.865,17.242-12.536,21.279-35.607c4.304-24.597-6.345-0.288-6.345-0.288s-18.169,37.203-51.045,42.394
		c-11.952,1.887-23.833,0.597-30.858-5.479c-12.299-10.638-14.996-29.993-14.996-29.993H195.07c0,0,8.466,36.856,33.742,42.394
		c-37.203,15.573-74.405,30.281-89.113-5.191s-23.318,5.191-23.318,5.191s10.341,18.169-6.098,22.495
		C95.491,184.332,59.136,203.003,0,189.686C0,203.667,0,307.667,0,327.228z"/>
	<path fill="#969F3C" d="M-9.977,155.349c0,0,129.741,15.573,155.714,0s67.31-46.069,101.58-48.99
		c34.27-2.921,32.969,9.192,88.776,9.192s81.327,18.169,123.72,0s58.744-95.169-25.955-74.405s-98.63-31.146-97.765-63.158
		S67.889-127.564-3.921-34.125S-82.245,149.292-9.977,155.349z"/>
	<g>
		<g>
			<g>
				<path fill="#574120" d="M41.372,238.369c0,0-0.777,0.162-2.17,0.451c-0.698,0.139-1.55,0.31-2.538,0.507
					c-0.989,0.183-2.086,0.548-3.312,0.857c-4.892,1.291-11.476,3.649-18.333,7.129c-6.889,3.423-12.729,7.291-16.846,10.248
					c-4.116,2.966-6.477,5.07-6.477,5.07s0.505-0.608,1.503-1.631c0.988-1.033,2.472-2.477,4.401-4.16
					c3.862-3.343,9.551-7.672,16.59-11.172c7.007-3.557,13.916-5.532,18.962-6.383c1.267-0.2,2.397-0.454,3.413-0.532
					c1.011-0.085,1.884-0.158,2.599-0.217C40.582,238.429,41.372,238.369,41.372,238.369z"/>
			</g>
		</g>
	</g>
	<g>
		<g>
			<g>
				<path fill="#574120" d="M156.658,171.739c0,0-0.209,0.596-0.68,1.703c-0.496,1.095-1.332,2.677-2.715,4.509
					c-1.38,1.832-3.321,3.887-5.831,5.971c-2.528,2.059-5.598,4.175-9.182,6.171c-7.156,4.024-16.249,7.724-26.619,10.837
					c-2.593,0.78-5.266,1.526-8.011,2.232c-2.711,0.763-5.464,1.52-8.248,2.382c-5.522,1.863-11.125,4.107-16.778,6.698
					c-2.837,1.279-5.64,2.542-8.403,3.787c-2.782,1.218-5.523,2.418-8.217,3.597c-2.723,1.114-5.397,2.208-8.017,3.28
					c-2.622,1.064-5.235,1.987-7.761,2.948c-10.088,3.878-19.624,6.443-27.792,7.269c-8.159,0.969-14.849,0.415-19.336-0.441
					c-2.248-0.439-3.953-0.95-5.092-1.334c-1.134-0.404-1.702-0.681-1.702-0.681s0.58,0.252,1.727,0.606
					c1.152,0.335,2.868,0.775,5.117,1.126c4.491,0.682,11.13,0.997,19.17-0.189c8.065-1.05,17.377-3.789,27.356-7.808
					c2.5-0.998,5.089-1.954,7.687-3.046c2.597-1.094,5.248-2.212,7.946-3.349c2.676-1.193,5.4-2.406,8.164-3.638
					c2.762-1.254,5.545-2.546,8.4-3.809c5.667-2.597,11.371-4.854,16.991-6.695c2.828-0.85,5.648-1.593,8.38-2.325
					c2.733-0.667,5.397-1.369,7.982-2.102c10.339-2.925,19.428-6.376,26.615-10.154c3.6-1.874,6.695-3.868,9.259-5.818
					c2.546-1.974,4.535-3.933,5.968-5.693c1.436-1.76,2.329-3.296,2.869-4.365C156.421,172.326,156.658,171.739,156.658,171.739z"/>
			</g>
		</g>
	</g>
	<g>
		<g>
			<g>
				<path fill="#574120" d="M198.618,175.248c0,0-1.932,1.447-5.108,3.653c-1.579,1.117-3.525,2.339-5.531,3.917
					c-1.028,0.756-2.104,1.546-3.218,2.365c-0.563,0.403-1.135,0.813-1.716,1.229c-0.575,0.423-1.124,0.895-1.702,1.345
					c-2.292,1.824-4.55,3.473-6.431,5.174c-0.951,0.836-1.928,1.564-2.732,2.352c-0.821,0.771-1.588,1.492-2.291,2.153
					c-0.721,0.644-1.268,1.316-1.812,1.858c-0.538,0.548-0.986,1.034-1.32,1.457c-0.71,0.817-1.057,1.309-1.057,1.309
					s0.247-0.55,0.823-1.476c0.268-0.479,0.64-1.032,1.1-1.655c0.465-0.617,0.938-1.379,1.583-2.11
					c0.639-0.744,1.337-1.557,2.083-2.426c0.745-0.882,1.663-1.692,2.575-2.609c1.803-1.863,4.023-3.631,6.353-5.485
					c0.587-0.457,1.151-0.932,1.743-1.349c0.6-0.405,1.19-0.804,1.772-1.197c1.168-0.769,2.297-1.511,3.375-2.221
					c2.128-1.451,4.209-2.486,5.918-3.413C196.461,176.293,198.618,175.248,198.618,175.248z"/>
			</g>
		</g>
	</g>
	<g>
		<g>
			<g>
				<path fill="#574120" d="M307.794,114.215c0,0-0.496,1.386-1.391,3.887c-0.515,1.226-1.249,2.681-2.054,4.4
					c-0.479,0.818-0.992,1.692-1.535,2.619c-0.273,0.464-0.554,0.941-0.843,1.431c-0.325,0.466-0.659,0.943-1.001,1.432
					c-0.702,0.965-1.368,2.034-2.196,3.042c-0.827,1.011-1.688,2.062-2.579,3.15c-0.962,1.027-1.957,2.089-2.982,3.182
					c-1.029,1.092-2.207,2.093-3.353,3.186c-4.715,4.22-10.435,8.309-17.002,11.578c-6.551,3.284-13.397,5.278-19.764,5.798
					c-3.216,0.264-6.136,0.246-8.931,0.334c-2.782,0.054-5.361,0.279-7.727,0.383c-4.706,0.415-8.523,0.827-11.111,1.387
					c-0.655,0.105-1.223,0.254-1.719,0.372c-0.496,0.119-0.919,0.211-1.249,0.322c-0.671,0.192-1.013,0.327-1.013,0.327
					s0.33-0.162,0.988-0.402c0.324-0.136,0.74-0.257,1.228-0.41c0.489-0.152,1.051-0.34,1.699-0.488
					c2.566-0.732,6.367-1.376,11.086-2.023c2.366-0.219,4.958-0.561,7.75-0.724c2.776-0.194,5.822-0.286,8.852-0.624
					c6.117-0.671,12.706-2.7,19.094-5.902c6.401-3.187,12.058-7.087,16.795-11.098c1.152-1.04,2.341-1.987,3.385-3.025
					c1.045-1.038,2.06-2.045,3.041-3.019c0.919-1.033,1.807-2.031,2.661-2.991c0.859-0.957,1.559-1.974,2.298-2.892
					c0.361-0.466,0.714-0.92,1.058-1.363c0.309-0.467,0.609-0.922,0.902-1.365c0.587-0.886,1.141-1.721,1.659-2.503
					c0.888-1.647,1.708-3.047,2.298-4.23C307.205,115.56,307.794,114.215,307.794,114.215z"/>
			</g>
		</g>
	</g>
	<g>
		<g>
			<g>
				<path fill="#574120" d="M363.09,139.818c-0.023-0.011,0.09,0.298-0.197,0.757c-0.27,0.462-0.914,0.944-1.805,1.371
					c-1.791,0.864-4.569,1.592-8.021,2.228c-6.915,1.265-16.576,2.125-27.238,2.57c-2.664,0.091-5.265,0.18-7.779,0.266
					c-2.461,0.122-4.844,0.31-7.088,0.718c-4.501,0.728-8.479,1.891-11.756,3.035c-3.281,1.143-5.873,2.266-7.643,3.086
					c-1.77,0.822-2.719,1.344-2.719,1.344s0.889-0.619,2.587-1.599c1.698-0.977,4.206-2.317,7.445-3.69
					c3.234-1.373,7.211-2.783,11.806-3.704c2.288-0.504,4.744-0.775,7.298-0.951c2.511-0.112,5.11-0.227,7.772-0.345
					c10.638-0.444,20.266-0.842,27.179-1.641c3.451-0.402,6.235-0.897,8.043-1.581c0.9-0.337,1.556-0.74,1.853-1.151
					C363.145,140.124,363.069,139.807,363.09,139.818z"/>
			</g>
		</g>
	</g>
	<g>
		<g>
			<g>
				<path fill="#574120" d="M57.552,194.247c0,0,0.039,0.262,0.112,0.759c0.07,0.499,0.115,1.247,0.031,2.214
					c-0.113,0.959-0.393,2.141-1.043,3.378c-0.643,1.235-1.639,2.511-2.955,3.668c-2.637,2.324-6.403,4.223-10.724,5.679
					c-4.328,1.474-9.236,2.537-14.415,3.303c-10.377,1.491-19.858,1.587-26.684,1.475c-6.835-0.133-11.042-0.542-11.042-0.542
					s4.225-0.052,11.029-0.379c6.799-0.348,16.196-0.905,26.431-2.377c5.11-0.755,9.946-1.688,14.211-2.961
					c4.262-1.256,7.967-2.879,10.608-4.907c1.318-1.01,2.337-2.134,3.036-3.249c0.705-1.115,1.071-2.213,1.265-3.131
					c0.165-0.924,0.194-1.666,0.175-2.165C57.564,194.511,57.552,194.247,57.552,194.247z"/>
			</g>
		</g>
	</g>
	<g>
		<g>
			<g>
				<path fill="#574120" d="M110.282,180.439c0,0,0.027,0.161,0.079,0.467c0.06,0.305,0.135,0.761,0.148,1.366
					c-0.005,1.205-0.474,2.974-1.593,4.818c-2.182,3.745-6.372,7.987-11.382,12.052c-5.042,4.012-9.806,7.388-13.464,9.535
					c-0.911,0.54-1.763,0.988-2.497,1.396c-0.746,0.392-1.417,0.681-1.949,0.936c-0.564,0.202-0.981,0.391-1.293,0.452
					c-0.302,0.084-0.467,0.086-0.467,0.086s0.161-0.031,0.442-0.162c0.287-0.105,0.676-0.361,1.187-0.633
					c0.488-0.33,1.099-0.7,1.779-1.178c0.675-0.491,1.441-1.048,2.286-1.663c3.36-2.502,7.814-6.221,12.816-10.201
					c4.942-4.01,9.317-7.802,11.771-11.125c1.255-1.639,1.897-3.195,2.076-4.334c0.072-0.57,0.071-1.027,0.061-1.338
					C110.282,180.603,110.282,180.439,110.282,180.439z"/>
			</g>
		</g>
	</g>
	<g>
		<g>
			<g>
				<path fill="#574120" d="M284.25,156.878c0,0-1.879,0.359-4.942,0.798c-1.531,0.22-3.358,0.459-5.392,0.684
					c-1.022,0.103-2.09,0.211-3.194,0.322c-1.11,0.085-2.254,0.236-3.439,0.209c-2.366,0.013-4.621-0.033-6.667-0.108
					c-1.023-0.039-1.995-0.08-2.903-0.136c-0.903-0.122-1.749-0.236-2.526-0.341c-1.539-0.236-2.777-0.385-3.626-0.6
					c-0.833-0.216-1.304-0.338-1.304-0.338s0.485,0.019,1.344,0.053c0.856,0.041,2.117-0.039,3.65-0.034
					c0.77,0,1.608,0.001,2.504,0.002c0.907-0.05,1.872-0.104,2.883-0.16c2.028-0.097,4.254-0.167,6.591-0.179
					c1.168,0.028,2.311-0.095,3.414-0.129c1.101-0.039,2.166-0.076,3.185-0.112c2.032-0.052,3.866-0.061,5.41-0.051
					C282.326,156.778,284.25,156.878,284.25,156.878z"/>
			</g>
		</g>
	</g>
	<g>
		<g>
			<g>
				<path fill="#A3AB55" d="M357.09,88.73c0,0,1.074,0.242,3.016,0.679c1.945,0.411,4.774,1.016,8.304,1.34
					c1.762,0.149,3.703,0.223,5.75,0.034c2.033-0.202,4.208-0.659,6.144-1.761c0.964-0.549,1.851-1.261,2.591-2.135
					c0.738-0.879,1.362-1.891,1.684-2.992c0.321-1.095,0.375-2.293-0.039-3.301c-0.203-0.501-0.495-0.964-0.901-1.336
					c-0.096-0.097-0.216-0.174-0.321-0.264l-0.081-0.066c0.016,0.003-0.176-0.12-0.23-0.139l-0.503-0.251
					c-0.671-0.348-1.347-0.642-2.025-0.949c0.769-0.458,1.698-1.011,2.631-1.566l1.004-0.63l0.862-0.569
					c0.564-0.387,1.117-0.779,1.64-1.19c1.034-0.82,2.025-1.707,2.634-2.674c0.3-0.48,0.463-0.964,0.45-1.37
					c-0.011-0.403-0.225-0.784-0.587-1.147c-0.745-0.721-1.883-1.22-2.986-1.597l-0.42-0.139c-0.265-0.089-0.541-0.154-0.806-0.23
					l-0.796-0.218l-0.393-0.108c-0.031-0.009-0.068-0.017-0.095-0.028l0.055-0.088l0.109-0.176c0.289-0.463,0.575-0.923,0.86-1.38
					c0.147-0.273,0.293-0.543,0.438-0.812c0.476-0.971,0.758-1.986,0.624-2.892c-0.094-0.916-0.662-1.675-1.385-2.238
					c-0.727-0.569-1.603-0.934-2.451-1.216c-1.719-0.542-3.39-0.738-4.847-0.823c-1.463-0.083-2.733-0.047-3.766,0.033
					c-1.034,0.079-1.834,0.197-2.371,0.301c-0.538,0.1-0.818,0.173-0.818,0.173s0.271-0.1,0.8-0.25
					c0.528-0.154,1.32-0.344,2.356-0.51c1.035-0.167,2.315-0.306,3.812-0.33c1.495-0.02,3.217,0.056,5.091,0.52
					c0.93,0.249,1.915,0.58,2.836,1.215c0.907,0.614,1.784,1.631,1.987,2.92c0.242,1.273-0.087,2.551-0.581,3.685
					c-0.143,0.3-0.288,0.605-0.435,0.914c-0.032,0.051,0.1,0.032,0.133,0.05l0.08,0.014l0.46,0.134
					c1.219,0.387,2.505,0.835,3.668,1.872c0.562,0.515,1.094,1.317,1.146,2.245c0.053,0.917-0.271,1.733-0.662,2.392
					c-0.812,1.321-1.9,2.276-3.011,3.187c-0.561,0.449-1.143,0.869-1.734,1.278l-0.899,0.598l-0.795,0.504l-0.003,0l-0.001,0.002
					l0,0.001c0.031,0.024-0.079-0.064-0.002-0.002l0.119,0.095c0.155,0.13,0.32,0.248,0.464,0.391
					c0.595,0.557,1.042,1.267,1.327,2.01c0.582,1.508,0.445,3.101,0.014,4.466c-0.931,2.753-2.962,4.769-5.208,5.945
					c-2.263,1.172-4.637,1.54-6.786,1.647c-2.163,0.089-4.152-0.105-5.939-0.369c-3.574-0.556-6.357-1.382-8.268-1.955
					C358.129,89.088,357.09,88.73,357.09,88.73z"/>
			</g>
		</g>
	</g>
	<g>
		<g>
			<g>
				<path fill="#A3AB55" d="M460.333,91.667c0,0,0.275,0.062,0.801,0.144c0.527,0.075,1.312,0.136,2.314,0.068
					c0.999-0.071,2.221-0.266,3.556-0.732c1.309-0.466,2.848-1.159,3.969-2.409c0.542-0.613,0.919-1.41,0.676-2.131
					c-0.209-0.73-0.935-1.378-1.775-1.878c-0.22-0.118-0.442-0.236-0.666-0.356l-0.354-0.159c-0.201-0.09-0.415-0.194-0.65-0.28
					c-0.465-0.181-0.862-0.36-1.308-0.546l-0.329-0.139c-0.077-0.051-0.325-0.08-0.14-0.166l0.559-0.449
					c0.369-0.284,0.766-0.622,1.13-0.873c0.31-0.222,0.622-0.445,0.936-0.669c0.47-0.338,0.946-0.68,1.428-1.027
					c0.941-0.697,1.876-1.451,2.602-2.309c0.357-0.424,0.662-0.888,0.757-1.314c0.11-0.42,0.047-0.805-0.159-1.132
					c-0.467-0.645-1.708-1.025-2.944-1.21c-1.267-0.194-2.611-0.252-4.03-0.395l-0.538-0.061l-0.939-0.179
					c-0.64-0.14-1.131-0.386-1.741-0.606l-0.218-0.085l0.131-0.179l0.266-0.359l0.531-0.715c0.146-0.229,0.464-0.507,0.64-0.765
					l0.325-0.408c0.341-0.492,0.65-1.003,0.768-1.455c0.106-0.465,0.037-0.698-0.218-0.979c-0.268-0.283-0.783-0.519-1.322-0.674
					c-0.545-0.156-1.128-0.269-1.721-0.331c-1.184-0.142-2.389-0.15-3.562-0.128c-1.175,0.027-2.326,0.109-3.442,0.214
					c-0.279,0.029-0.556,0.058-0.83,0.086l-0.546,0.067l-0.713,0.104c-0.467,0.073-0.931,0.146-1.39,0.218l-0.169,0.027
					c-0.018-0.023,0.032-0.102,0.045-0.149l0.128-0.329l0.253-0.648c0.162-0.419,0.347-0.869,0.466-1.266
					c0.097-0.261,0.143-0.478,0.207-0.717c0.124-0.467,0.176-0.925,0.197-1.366c-0.014-0.431-0.059-0.852-0.219-1.204
					c-0.159-0.35-0.402-0.64-0.708-0.864c-0.631-0.439-1.456-0.592-2.228-0.622c-0.779-0.031-1.53,0.052-2.225,0.174
					c-1.392,0.249-2.565,0.651-3.495,1.032c-0.932,0.382-1.625,0.756-2.083,1.028c-0.459,0.271-0.688,0.436-0.688,0.436
					s0.21-0.187,0.644-0.502c0.433-0.316,1.095-0.756,2.006-1.224c0.91-0.466,2.067-0.972,3.493-1.34
					c0.713-0.18,1.495-0.328,2.352-0.353c0.848-0.019,1.812,0.057,2.728,0.6c0.448,0.279,0.848,0.694,1.11,1.196
					c0.265,0.506,0.358,1.064,0.405,1.617c0.01,0.548-0.028,1.101-0.138,1.637c-0.053,0.262-0.107,0.556-0.182,0.791
					c-0.025,0.098-0.037,0.176-0.062,0.252c-0.002,0.059-0.085,0.181-0.016,0.175l0.248-0.061l0.113-0.027l0.282-0.049
					c0.281-0.042,0.563-0.084,0.848-0.127c1.141-0.157,2.321-0.289,3.543-0.361c1.223-0.067,2.483-0.101,3.799,0.018
					c0.656,0.052,1.33,0.158,2.019,0.339c0.682,0.194,1.42,0.441,2.092,1.076c0.33,0.309,0.618,0.759,0.733,1.252
					c0.083,0.244,0.061,0.484,0.081,0.728c-0.007,0.234-0.055,0.449-0.089,0.673c-0.214,0.842-0.624,1.483-1.039,2.102l-0.301,0.388
					l-0.002,0.005l0.002,0.003c0.005,0-0.002-0.002,0.01,0l0.55,0.062c1.334,0.136,2.728,0.202,4.126,0.429
					c0.704,0.13,1.409,0.266,2.123,0.553c0.702,0.291,1.454,0.7,1.992,1.467c0.513,0.78,0.604,1.779,0.358,2.584
					c-0.232,0.821-0.691,1.42-1.145,1.941c-0.931,1.034-1.962,1.791-2.968,2.486c-0.505,0.335-1.003,0.665-1.495,0.992l-0.495,0.316
					l-0.209,0.126l-0.096,0.062c-0.03,0.021,0.036,0.029,0.052,0.045l0.179,0.093l0.109,0.062l0.382,0.195
					c0.247,0.149,0.493,0.296,0.736,0.442c0.927,0.631,1.87,1.459,2.165,2.679c0.148,0.596,0.064,1.236-0.169,1.741
					c-0.226,0.51-0.539,0.942-0.894,1.283c-1.423,1.379-3.068,1.942-4.474,2.339c-1.424,0.379-2.693,0.476-3.718,0.462
					c-1.028-0.019-1.815-0.153-2.336-0.278C460.599,91.756,460.333,91.667,460.333,91.667z"/>
			</g>
		</g>
	</g>
	<g>
		<g>
			<g>
				<path fill="#A3AB55" d="M407.847,108.053c0,0,0.041,0.209,0.12,0.607c0.039,0.198,0.086,0.443,0.142,0.732
					c0.081,0.283,0.205,0.6,0.326,0.959c0.092,0.372,0.36,0.713,0.557,1.12c0.096,0.208,0.282,0.368,0.426,0.564
					c0.152,0.192,0.306,0.393,0.522,0.544c0.763,0.705,1.898,1.19,3.199,1.21c1.298,0.031,2.731-0.354,4.083-1.102
					c0.343-0.179,0.679-0.383,0.998-0.628c0.336-0.217,0.646-0.481,0.951-0.758c0.151-0.14,0.321-0.26,0.456-0.422l0.662-0.698
					l0.42-0.44c0.149,0.022,0.307,0.18,0.462,0.265l0.471,0.31c0.164,0.109,0.33,0.22,0.397,0.241
					c1.452,0.792,3.321,1.002,4.939,0.352c0.803-0.321,1.523-0.855,2.052-1.559l0.201-0.263l0.325-0.765l0.332-0.787
					c0.107-0.328,0.203-0.806,0.306-1.205c0.357-1.471,0.716-2.952,1.078-4.443c0.113,1.049,0.238,2.203,0.369,3.411
					c0.069,0.637,0.139,1.289,0.21,1.949c0.02,0.149,0.029,0.354,0.058,0.458l0.082,0.333l0.165,0.669
					c0.037,0.143,0.17,0.339,0.169,0.325c0.024,0.027,0.041,0.08,0.066,0.09c0.047,0.03,0.08,0.091,0.12,0.093
					c0.063,0.051,0.154,0.055,0.308,0.044c0.317-0.039,0.772-0.262,1.183-0.551c0.84-0.586,1.612-1.387,2.304-2.201
					c0.697-0.819,1.314-1.688,1.858-2.557c0.268-0.437,0.514-0.876,0.73-1.313l0.076-0.164c0.044-0.097,0.099-0.215,0.14-0.326
					c0.089-0.226,0.148-0.493,0.223-0.734c0.139-0.493,0.264-1.075,0.373-1.529c0.424,0.411,0.902,0.95,1.332,1.402
					c0.206,0.214,0.467,0.514,0.619,0.648l0.372,0.28c0.474,0.415,1.021,0.649,1.558,0.843c1.096,0.364,2.271,0.192,3.267-0.257
					c1-0.439,1.887-1.062,2.581-1.773c0.727-0.681,1.28-1.434,1.747-2.132c0.915-1.419,1.375-2.699,1.636-3.583
					c0.22-0.894,0.307-1.391,0.307-1.391s-0.023,0.498-0.146,1.427c-0.165,0.918-0.495,2.271-1.309,3.833
					c-0.418,0.77-0.929,1.611-1.646,2.405c-0.684,0.82-1.592,1.587-2.719,2.18c-0.294,0.126-0.575,0.299-0.897,0.39
					c-0.326,0.086-0.657,0.173-0.992,0.261c-0.352,0.02-0.709,0.04-1.07,0.061c-0.361-0.011-0.724-0.101-1.095-0.156
					c-0.71-0.198-1.447-0.487-2.048-0.951l-0.477-0.328c-0.12-0.084-0.082-0.063-0.128-0.097c-0.048-0.028-0.105-0.106-0.127-0.075
					c-0.006,0.053-0.015,0.101-0.025,0.143l-0.014,0.06l-0.01,0.034l-0.08,0.194c-0.226,0.507-0.478,1.003-0.754,1.489
					c-0.558,0.969-1.19,1.918-1.927,2.831c-0.741,0.911-1.55,1.806-2.615,2.576c-0.541,0.371-1.14,0.751-2.003,0.883
					c-0.427,0.054-0.965,0.014-1.415-0.252c-0.241-0.114-0.407-0.285-0.584-0.452c-0.156-0.157-0.309-0.423-0.261-0.344l0.001-0.013
					c0-0.009-0.004-0.009-0.004-0.009c0.002-0.005-0.008,0.009-0.023,0.031l-0.309,0.401c-0.749,0.96-1.768,1.671-2.856,2.066
					c-2.193,0.801-4.551,0.397-6.288-0.66c-0.144-0.076-0.167-0.097-0.192-0.119l-0.098-0.077c-0.032-0.023-0.07-0.059-0.099-0.073
					l-0.056,0.044l-0.065,0.054l-0.214,0.205c-0.162,0.172-0.36,0.301-0.539,0.448c-0.361,0.292-0.726,0.565-1.117,0.788
					c-0.373,0.25-0.763,0.455-1.161,0.631c-1.565,0.736-3.205,1.055-4.682,0.901c-1.481-0.139-2.748-0.822-3.519-1.683
					c-0.791-0.852-1.176-1.78-1.379-2.533c-0.086-0.384-0.177-0.719-0.227-1.013c-0.024-0.298-0.044-0.55-0.061-0.754
					C407.863,108.265,407.847,108.053,407.847,108.053z"/>
			</g>
		</g>
	</g>
	<g>
		<g>
			<g>
				<path fill="#A3AB55" d="M394.869,91.903c0,0,0.188,0.149,0.543,0.431c0.354,0.278,0.917,0.65,1.694,0.991
					c0.781,0.319,1.796,0.608,2.972,0.557c1.162-0.042,2.499-0.448,3.515-1.453c0.278-0.221,0.467-0.541,0.705-0.819
					c0.169-0.332,0.404-0.63,0.521-1.006c0.071-0.192,0.14-0.336,0.217-0.57c0.088-0.34,0.177-0.684,0.267-1.031
					c0.048-0.169,0.085-0.368,0.145-0.519l0.481,0.201c0.328,0.137,0.659,0.276,0.993,0.416c0.199,0.089,0.265,0.097,0.378,0.135
					l0.315,0.097c0.212,0.063,0.421,0.137,0.639,0.192c0.442,0.091,0.881,0.219,1.341,0.287c0.916,0.15,1.869,0.265,2.846,0.261
					c1.938,0.013,4.025-0.242,5.83-1.16c0.926-0.415,1.702-1.072,2.35-1.822l0.441-0.605c0.144-0.205,0.224-0.45,0.343-0.672
					c0.112-0.227,0.236-0.449,0.284-0.708l0.052-0.187c0.015-0.055,0.004-0.011,0.007-0.022l0,0.007l0,0
					c-0.023-0.01,0.071,0.029-0.13-0.049c-0.165-0.071-0.408-0.237-0.579-0.377l-0.904-0.743l1.027-0.66
					c1.543-0.992,2.963-1.608,4.346-2.364c1.372-0.725,2.675-1.464,3.791-2.292c1.098-0.803,2.066-1.825,2.066-2.698
					c-0.003-0.425-0.236-0.868-0.601-1.265l-0.142-0.146l-0.07-0.073l-0.035-0.037l-0.009-0.009l-0.052-0.038l-0.043-0.031
					c-0.226-0.162-0.451-0.323-0.674-0.483c-0.44-0.318-0.883-0.587-1.299-0.867c0.466-0.199,0.928-0.395,1.383-0.59l0.662-0.3
					c0.112-0.053,0.208-0.089,0.332-0.156l0.175-0.098c0.466-0.242,0.872-0.534,1.221-0.848c0.714-0.626,1.032-1.446,0.797-2.204
					c-0.215-0.767-0.826-1.382-1.425-1.836c-0.615-0.456-1.264-0.771-1.866-1.003c-1.211-0.46-2.24-0.591-2.93-0.638
					c-0.347-0.019-0.614-0.027-0.793-0.02c-0.18,0.001-0.272,0.002-0.272,0.002s0.092-0.011,0.27-0.034
					c0.178-0.027,0.445-0.05,0.797-0.068c0.7-0.027,1.755-0.004,3.061,0.356c0.649,0.185,1.363,0.452,2.08,0.894
					c0.696,0.451,1.471,1.061,1.863,2.089c0.191,0.506,0.233,1.122,0.064,1.695c-0.165,0.575-0.507,1.08-0.91,1.502
					c-0.406,0.421-0.87,0.794-1.375,1.1l-0.361,0.23c-0.076,0.049-0.167,0.087-0.216,0.128c0.099,0.054,0.195,0.097,0.277,0.149
					l0.118,0.073l0.007,0.004c-0.011-0.011,0.03,0.028-0.024-0.024l0.012,0.011l0.05,0.045l0.1,0.09l0.2,0.183
					c0.514,0.497,1.032,1.229,1.092,2.165c0.042,0.932-0.38,1.753-0.854,2.387c-0.486,0.645-1.063,1.174-1.667,1.662
					c-1.215,0.969-2.562,1.777-3.954,2.552c-1.365,0.776-2.906,1.503-4.139,2.31c-0.03-0.38-0.061-0.761-0.094-1.186
					c0.374-0.349,0.142-0.219,0.237-0.224c0.013,0.012,0.359,0.111,0.528,0.215c0.192,0.116,0.392,0.213,0.58,0.349l0.286,0.193
					c0.07,0.023,0.051,0.083,0.045,0.137l-0.016,0.162c-0.016,0.131-0.017,0.254-0.045,0.391l-0.12,0.431l-0.18,0.638
					c-0.07,0.32-0.223,0.615-0.369,0.91c-0.153,0.291-0.271,0.6-0.458,0.868l-0.583,0.786c-0.847,0.973-1.874,1.775-2.99,2.251
					c-2.21,1.047-4.532,1.223-6.649,1.126c-1.066-0.043-2.092-0.214-3.075-0.428c-0.493-0.1-0.966-0.262-1.436-0.389
					c-0.233-0.073-0.459-0.167-0.686-0.248l-0.337-0.126c-0.103-0.039-0.257-0.093-0.263-0.105l-0.242-0.129l-0.129-0.068
					c-0.017,0.027-0.027,0.066-0.041,0.099l-0.084,0.223c-0.095,0.204-0.189,0.405-0.283,0.605c-0.169,0.424-0.47,0.776-0.701,1.144
					c-0.305,0.319-0.56,0.669-0.907,0.913c-1.295,1.095-2.86,1.413-4.128,1.347c-1.288-0.059-2.324-0.471-3.097-0.881
					c-0.767-0.434-1.293-0.87-1.619-1.19C395.039,92.072,394.869,91.903,394.869,91.903z"/>
			</g>
		</g>
	</g>
	<g>
		<g>
			<g>
				<path fill="#A3AB55" d="M372.663,100.266c0,0,0.144,0.159,0.417,0.462c0.227,0.329,0.635,0.827,0.746,1.643
					c0.066,0.404,0.01,0.868-0.143,1.348c-0.182,0.469-0.476,0.934-0.866,1.364c-0.797,0.843-1.934,1.538-3.278,2.03
					c-1.347,0.481-2.913,0.8-4.626,0.738c-1.689-0.065-3.625-0.482-5.227-1.821l-0.448-0.402c-0.027-0.016-0.048-0.065-0.076-0.029
					l-0.072,0.043l-0.151,0.082l-0.629,0.326c-0.847,0.439-1.72,0.885-2.62,1.321c-1.8,0.872-3.703,1.719-5.738,2.421
					c-2.035,0.689-4.103,1.257-6.277,1.258c-1.074-0.015-2.232-0.174-3.243-0.831c-1.019-0.62-1.663-1.806-1.825-2.744
					c-0.01-0.025,0.043-0.221-0.063-0.155l-0.126,0.023l-0.609,0.182c-0.831,0.243-1.639,0.479-2.421,0.707
					c-1.578,0.427-3.087,0.806-4.566,0.802c-0.731-0.011-1.484-0.123-2.099-0.522c-0.625-0.383-0.992-1.004-1.153-1.567
					c-0.316-1.146-0.189-2.116-0.102-2.886c0.113-0.771,0.244-1.357,0.344-1.752c0.1-0.393,0.153-0.601,0.153-0.601
					s-0.026,0.212-0.075,0.615c-0.05,0.402-0.109,0.998-0.135,1.761c-0.006,0.753-0.007,1.719,0.364,2.667
					c0.188,0.467,0.51,0.885,0.979,1.114c0.46,0.246,1.064,0.294,1.699,0.25c1.283-0.101,2.706-0.561,4.216-1.084
					c0.759-0.274,1.544-0.557,2.351-0.848l0.628-0.227c0.374-0.128,0.75-0.256,1.129-0.386l0.58-0.197
					c0.036,0.003,0.125-0.077,0.119-0.006l0.024,0.147l0.048,0.296c0.069,0.406,0.12,0.778,0.208,1.232
					c0.209,0.836,0.595,1.376,1.216,1.757c0.611,0.379,1.467,0.503,2.357,0.487c1.802-0.04,3.75-0.576,5.68-1.237
					c1.939-0.668,3.802-1.465,5.588-2.275c0.892-0.416,1.769-0.824,2.628-1.224c0.569-0.265,1.132-0.527,1.689-0.786l0.295-0.134
					c0.055-0.049,0.086,0.008,0.12,0.051l0.104,0.124l0.411,0.493l0.203,0.244l0.112,0.111l0.211,0.208
					c1.165,1.086,2.777,1.577,4.283,1.731c1.522,0.159,2.987-0.021,4.262-0.359c1.275-0.349,2.369-0.89,3.151-1.569
					c0.382-0.347,0.678-0.724,0.88-1.113c0.172-0.397,0.269-0.794,0.25-1.16c-0.014-0.74-0.34-1.272-0.524-1.621
					C372.785,100.441,372.663,100.266,372.663,100.266z"/>
			</g>
		</g>
	</g>
	<g>
		<g>
			<g>
				<path fill="#A3AB55" d="M127.529,125.356c0,0-0.032,0.133-0.095,0.39c-0.07,0.255-0.156,0.639-0.227,1.145
					c-0.142,0.998-0.249,2.549,0.373,4.327c0.316,0.875,0.806,1.809,1.59,2.592c0.759,0.792,1.825,1.437,3.034,1.599
					c1.209,0.166,2.504-0.303,3.402-1.333c0.467-0.571,0.74-0.833,1.379-2.494c0.252-0.768,0.544-1.73,0.768-2.496
					c0.119-0.404,0.24-0.81,0.36-1.218l0.275-0.757c0.043,0.626,0.087,1.256,0.13,1.891l0.078,1.105l0.039,0.561
					c0.014,0.182,0.037,0.269,0.055,0.409c0.086,0.486,0.132,1.088,0.252,1.504c0.024,0.07,0.089,0.199,0.135,0.239l0.059,0.077
					c0.042,0.046,0.065,0.12,0.123,0.143c0.345,0.319,0.934,0.396,1.634,0.27c1.402-0.262,2.917-1.084,4.38-1.982
					c2.957-1.836,5.888-4.217,8.95-6.666c0.439-0.343,0.876-0.685,1.311-1.026c0.221-0.169,0.455-0.339,0.703-0.508
					c0.148-0.087,0.244-0.176,0.509-0.287c0.125-0.044,0.248-0.11,0.379-0.123l0.353-0.017c0.774,0.005,1.364,0.234,1.907,0.447
					c0.542,0.223,1.019,0.471,1.495,0.705c0.935,0.466,1.825,0.917,2.685,1.134c0.432,0.125,0.839,0.158,1.235,0.147
					c0.378-0.038,0.847-0.11,1.24-0.254c3.255-1.15,5.537-4.768,4.995-7.442c0.472-0.058,0.865-0.106,1.257-0.155
					c0.01,0.617,0.177,0.991,0.682,1.148c0.504,0.166,1.176,0.11,1.79-0.029c1.251-0.287,2.41-0.853,3.414-1.468
					c2.011-1.249,3.505-2.769,4.274-4.257c0.8-1.493,0.67-2.914,0.306-3.731c-0.195-0.406-0.365-0.711-0.516-0.891
					c-0.136-0.191-0.207-0.29-0.207-0.29s0.079,0.092,0.232,0.27c0.169,0.169,0.366,0.457,0.602,0.859
					c0.446,0.797,0.715,2.314-0.024,3.968c-0.705,1.643-2.161,3.337-4.202,4.781c-1.028,0.713-2.205,1.385-3.621,1.793
					c-0.709,0.186-1.493,0.347-2.396,0.115c-0.439-0.116-0.934-0.404-1.209-0.863c-0.311-0.446-0.369-0.944-0.404-1.405l1.257-0.155
					c0.468,1.798-0.054,3.748-1.047,5.4c-1.016,1.646-2.542,3.157-4.642,3.939c-0.53,0.199-1.051,0.305-1.667,0.377
					c-0.603,0.039-1.219-0.015-1.772-0.161c-1.13-0.268-2.109-0.762-3.061-1.216c-0.917-0.444-1.924-0.94-2.581-0.934
					c-0.082,0.003-0.041-0.004-0.052-0.001l-0.19,0.121c-0.198,0.137-0.404,0.288-0.615,0.45c-0.423,0.332-0.847,0.665-1.274,1
					c-3.059,2.445-6.071,4.836-9.216,6.691c-1.585,0.905-3.166,1.763-5.027,2.062c-0.227,0.044-0.47,0.057-0.72,0.052
					c-0.241,0.015-0.495-0.015-0.754-0.073c-0.51-0.081-1.029-0.361-1.42-0.736c-0.113-0.082-0.17-0.201-0.252-0.304l-0.112-0.16
					c-0.017-0.032,0.01-0.002-0.008-0.026c-0.018-0.038-0.028-0.083-0.043-0.128c-0.019-0.092-0.04-0.196-0.041-0.311l-0.006-0.198
					c-0.013,0.021-0.031,0.075-0.047,0.115c-0.029,0.089-0.082,0.18-0.132,0.283l-0.093,0.155l-0.253,0.382
					c-0.228,0.354-0.508,0.677-0.802,0.973c-1.162,1.224-2.92,1.753-4.381,1.449c-1.468-0.285-2.624-1.118-3.41-2.046
					c-0.81-0.926-1.266-1.97-1.534-2.921c-0.521-1.931-0.274-3.501-0.048-4.497c0.115-0.505,0.235-0.881,0.328-1.13
					C127.485,125.485,127.529,125.356,127.529,125.356z"/>
			</g>
		</g>
	</g>
	<g>
		<g>
			<g>
				<path fill="#A3AB55" d="M75.907,133.143c0,0-0.507,0.222-1.436,0.628c-0.922,0.421-2.263,1.05-3.875,1.946
					c-0.803,0.45-1.678,0.966-2.559,1.594c-0.87,0.623-1.813,1.352-2.457,2.268c-0.351,0.455-0.486,0.938-0.507,1.396
					c0.018,0.598,0.156,1.186,0.411,1.504c0.241,0.286,0.663,0.417,1.293,0.367c0.149-0.006,0.307-0.028,0.467-0.054l0.123-0.018
					l0.225-0.05l0.454-0.101c0.716-0.205,1.439-0.412,2.168-0.62c-0.134,0.511-0.27,1.031-0.409,1.559
					c-0.06,0.268-0.12,0.538-0.18,0.809c-0.022,0.113-0.08,0.326-0.073,0.359l-0.003,0.166c-0.023,0.45,0.054,0.847,0.243,1.081
					c0.325,0.496,1.431,0.693,2.548,0.586c1.71-0.154,3.44-0.679,5.045-1.264c0.805-0.298,1.587-0.624,2.332-0.972
					c0.374-0.172,0.734-0.356,1.084-0.542c0.655-0.377,1.353-0.877,1.964-1.312c0.12,0.599,0.239,1.192,0.358,1.779
					c0.165,0.677,0.21,0.757,0.321,1.039c0.203,0.481,0.473,0.888,0.817,1.152c0.676,0.54,1.715,0.505,2.639,0.211
					c1.877-0.599,3.402-1.721,4.585-2.641c2.378-1.902,3.456-3.371,3.456-3.371s-0.85,1.616-3.063,3.814
					c-1.122,1.069-2.523,2.373-4.619,3.245c-0.527,0.208-1.114,0.372-1.77,0.393c-0.648,0.027-1.389-0.126-2.006-0.544
					c-0.621-0.411-1.062-1.021-1.371-1.647c-0.147-0.279-0.319-0.769-0.301-0.716c-0.025-0.046-0.036-0.092-0.054-0.119
					c-0.057,0.055-0.095,0.088-0.146,0.129c-0.375,0.222-0.757,0.437-1.148,0.636c-0.781,0.403-1.594,0.774-2.44,1.114
					c-1.697,0.665-3.501,1.263-5.536,1.452c-0.678,0.053-1.381,0.048-2.112-0.11c-0.715-0.152-1.538-0.529-2.054-1.262
					c-0.519-0.732-0.584-1.562-0.537-2.219l0.016-0.254c0.007-0.106,0.005-0.038,0.008-0.065l0.012-0.033l0.03-0.063
					c-0.021-0.002-0.026-0.005-0.086,0l-0.297,0.035c-0.205,0.024-0.412,0.044-0.629,0.044c-0.425,0.01-0.881-0.022-1.349-0.189
					c-0.461-0.156-0.927-0.471-1.217-0.886c-0.563-0.839-0.603-1.687-0.599-2.409c0.057-0.876,0.43-1.648,0.892-2.17
					c0.908-1.096,1.966-1.751,2.938-2.336c0.98-0.577,1.922-1.016,2.783-1.391c1.726-0.742,3.138-1.211,4.111-1.514
					C75.371,133.274,75.907,133.143,75.907,133.143z"/>
			</g>
		</g>
	</g>
	<g>
		<g>
			<g>
				<path fill="#A3AB55" d="M89.173,119.588c0,0,0.149,0.094,0.432,0.273c0.274,0.189,0.713,0.415,1.282,0.677
					c1.148,0.5,2.895,1.059,5.111,1.237c2.185,0.173,4.922,0.103,7.492-1.019c1.236-0.438,1.913-1.616,2.925-3.02l0.409-0.532
					l0.533-0.541c0.212-0.168,0.494-0.314,0.74-0.474c0.229-0.115,0.433-0.186,0.652-0.281c0.919-0.329,1.89-0.419,2.779-0.456
					c0.892-0.038,1.732-0.024,2.431-0.144c0.709-0.122,1.165-0.37,1.474-0.841c0.176-0.215,0.261-0.548,0.379-0.843
					c0.049-0.35,0.165-0.664,0.172-1.034c0.022-0.341,0.043-0.68,0.064-1.017c0.025-0.167-0.008-0.397,0.065-0.509l0.49-0.047
					c0.541-0.05,1.077-0.099,1.605-0.148c2.946-0.247,5.608-0.617,7.413-1.753c1.855-1.124,2.179-3.107,2.127-4.309
					c0.027-0.629-0.108-1.108-0.143-1.439c-0.05-0.331-0.076-0.506-0.076-0.506s0.053,0.168,0.153,0.487
					c0.085,0.324,0.292,0.787,0.353,1.434c0.043,0.321,0.127,0.678,0.087,1.08c-0.007,0.202-0.014,0.412-0.021,0.631
					c-0.018,0.218-0.093,0.439-0.143,0.673c-0.226,0.917-0.812,1.962-1.798,2.697c-1.956,1.518-4.799,2.121-7.774,2.55l-0.481,0.071
					l-0.177,0.035l-0.084,0.017c-0.01,0.01,0,0.025-0.001,0.036l0.005,0.042l0.003,0.023l0.001,0.011l-0.002,0.077
					c0.008,0.418-0.111,0.875-0.17,1.319c-0.147,0.457-0.258,0.925-0.566,1.379c-0.118,0.235-0.303,0.44-0.505,0.638
					c-0.184,0.216-0.418,0.364-0.657,0.51c-0.473,0.293-0.987,0.436-1.466,0.531c-0.965,0.175-1.847,0.152-2.683,0.193
					c-0.838,0.034-1.589,0.11-2.267,0.337l-0.51,0.205c-0.104,0.068-0.202,0.108-0.31,0.2l-0.346,0.334l-0.353,0.434
					c-0.487,0.608-0.932,1.298-1.548,1.935c-0.283,0.319-0.654,0.617-1.014,0.879c-0.405,0.233-0.82,0.467-1.183,0.58
					c-3.047,1.109-5.933,0.895-8.203,0.49c-2.294-0.422-4.024-1.228-5.118-1.895c-0.543-0.346-0.948-0.637-1.194-0.868
					C89.306,119.705,89.173,119.588,89.173,119.588z"/>
			</g>
		</g>
	</g>
	<g>
		<g>
			<g>
				<path fill="#A3AB55" d="M333.153,35.378c0,0,0.156-0.053,0.455-0.155c0.302-0.093,0.742-0.248,1.289-0.499
					c0.547-0.245,1.202-0.598,1.856-1.133c0.652-0.528,1.276-1.298,1.554-2.293c0.306-0.989,0.182-2.171-0.222-3.353
					c-0.436-1.179-1.131-2.38-2.056-3.514c-0.912-1.143-2.038-2.233-3.323-3.216c-0.645-0.488-1.336-0.94-2.064-1.343
					c-0.184-0.095-0.366-0.2-0.553-0.29l-0.665-0.303c-0.836-0.304-1.693-0.6-2.569-0.876c0.51-0.441,1.028-0.89,1.554-1.346
					c0.413-0.343,0.831-0.691,1.255-1.043c0.574-0.482,1.139-0.975,1.613-1.511c0.992-1.053,1.363-2.347,0.886-3.655
					c-0.305-0.874-1.008-1.612-1.877-2.158c-0.871-0.55-1.882-0.931-2.904-1.205c-1.026-0.271-2.075-0.446-3.109-0.522
					c-0.517-0.035-1.029-0.059-1.533-0.052c-0.127-0.002-0.252,0-0.375,0.008c-0.226,0.017-0.467,0.018-0.719,0.054
					c-0.488,0.058-0.974,0.115-1.457,0.173l-0.178,0.021c-0.045-0.005,0.017-0.103,0.02-0.15l0.101-0.351l0.2-0.694l0.2-0.697
					l0.102-0.512c0.078-0.443,0.09-0.875,0.064-1.294c-0.087-0.83-0.438-1.572-0.978-2.166c-1.121-1.182-2.769-1.734-4.231-2.033
					c-2.998-0.557-5.56-0.203-7.226,0.218c-0.838,0.22-1.474,0.462-1.885,0.668c-0.413,0.2-0.621,0.328-0.621,0.328
					s0.19-0.151,0.583-0.398c0.391-0.251,1.006-0.564,1.837-0.873c1.658-0.593,4.228-1.206,7.456-0.853
					c1.582,0.219,3.436,0.635,4.985,2.059c0.75,0.719,1.318,1.75,1.485,2.872c0.068,0.558,0.076,1.126,0.005,1.682l-0.03,0.195
					l-0.004,0.041c-0.001,0.023-0.002,0.045-0.006,0.065c0.004,0.032-0.032,0.095,0.007,0.09l0.127-0.03l0.074-0.013
					c0.139-0.015,0.278-0.022,0.417-0.025c0.557-0.028,1.117-0.022,1.683-0.002c1.131,0.047,2.282,0.204,3.441,0.483
					c1.156,0.285,2.329,0.691,3.438,1.371c1.095,0.669,2.159,1.695,2.649,3.093c0.35,0.96,0.403,2.01,0.142,3.006
					c-0.26,0.997-0.831,1.814-1.425,2.46c-0.599,0.654-1.237,1.179-1.845,1.666l-0.452,0.357c-0.033,0.023-0.027,0.016-0.045,0.026
					c-0.021,0.012-0.061,0.032-0.08,0.05l0.094,0.058l0.54,0.276c0.209,0.109,0.406,0.232,0.607,0.347
					c0.791,0.479,1.522,1.004,2.195,1.562c1.339,1.124,2.477,2.351,3.385,3.637c0.919,1.276,1.594,2.629,1.983,3.974
					c0.359,1.349,0.399,2.731-0.051,3.854c-0.421,1.131-1.204,1.917-1.946,2.412c-0.748,0.503-1.454,0.795-2.034,0.987
					c-0.581,0.197-1.037,0.304-1.349,0.363C333.314,35.343,333.153,35.378,333.153,35.378z"/>
			</g>
		</g>
	</g>
	<g>
		<g>
			<g>
				<path fill="#A3AB55" d="M322.771,68.254c0,0-0.008,0.138-0.024,0.399c-0.007,0.262-0.062,0.643-0.055,1.135
					c0.004,0.245,0.008,0.517,0.012,0.813c0.019,0.295,0.068,0.611,0.103,0.949c0.134,0.656,0.299,1.424,0.765,2.063
					c0.442,0.645,1.134,1.145,2.029,1.309c0.886,0.181,1.915,0.102,2.964-0.159c1.051-0.262,2.129-0.716,3.158-1.302
					c0.515-0.293,1.016-0.629,1.47-1.006c0.46-0.368,0.88-0.799,1.134-1.221c0.152-0.263,0.243-0.52,0.203-0.608
					c0.017-0.036-0.014-0.051-0.021-0.074c-0.026-0.155-0.329-0.312-0.579-0.499c-0.473-0.331-0.931-0.652-1.369-0.959
					c0.906-0.283,2.457-0.731,3.183-0.99c0.543-0.19,1.078-0.377,1.602-0.561c1.041-0.386,2.032-0.779,2.948-1.194
					c1.807-0.831,3.442-1.713,4.262-2.804c0.396-0.537,0.464-1.123,0.188-1.596c-0.247-0.482-0.659-0.813-0.982-1.065
					c-0.334-0.25-0.612-0.423-0.805-0.53c-0.19-0.114-0.291-0.175-0.291-0.175s0.11,0.039,0.319,0.113
					c0.213,0.069,0.521,0.187,0.908,0.382c0.378,0.204,0.868,0.459,1.278,1.005c0.464,0.512,0.522,1.535,0.078,2.283
					c-0.865,1.519-2.5,2.599-4.315,3.653c-0.92,0.518-1.916,1.003-2.972,1.466c-0.529,0.229-1.073,0.452-1.633,0.666
					c-0.198,0.073-0.157,0.062-0.164,0.067l-0.009,0.012c-0.002,0.007-0.009,0.01,0.008,0.016l0.015,0.006
					c0.01,0.007-0.015-0.013,0.023,0.016c0.066,0.164,0.138,0.332,0.142,0.508c0.114,0.744-0.173,1.33-0.439,1.807
					c-0.451,0.733-1.005,1.248-1.573,1.693c-0.568,0.45-1.16,0.819-1.764,1.133c-1.207,0.625-2.447,1.063-3.687,1.278
					c-1.236,0.21-2.487,0.209-3.617-0.149c-1.142-0.33-2.055-1.168-2.488-2.053c-0.471-0.886-0.517-1.761-0.554-2.484
					c0.017-0.365,0.02-0.703,0.051-1.009c0.047-0.303,0.09-0.58,0.128-0.83c0.08-0.495,0.207-0.866,0.263-1.121
					C322.736,68.388,322.771,68.254,322.771,68.254z"/>
			</g>
		</g>
	</g>
</g>
<g>
</g>
<g>
</g>
<g>
</g>
<g>
</g>
<g>
</g>
<g>
</g>
<g>
</g>
</svg>
